<?xml version="1.0" encoding="UTF-8" standalone="no"?>
<!DOCTYPE svg PUBLIC "-//W3C//DTD SVG 1.1//EN"
 "http://www.w3.org/Graphics/SVG/1.1/DTD/svg11.dtd">
<!-- Generated by graphviz version 2.28.0 (20130622.2148)
 -->
<!-- Title: fcs_get_position_char Pages: 1 -->
<svg width="296pt" height="66pt"
 viewBox="0.00 0.00 296.00 66.00" xmlns="http://www.w3.org/2000/svg" xmlns:xlink="http://www.w3.org/1999/xlink">
<g id="graph1" class="graph" transform="scale(1 1) rotate(0) translate(4 62)">
<title>fcs_get_position_char</title>
<!-- Node1 -->
<g id="node1" class="node"><title>Node1</title>
<polygon fill="#bfbfbf" stroke="black" points="0.5,-19.5 0.5,-38.5 113.5,-38.5 113.5,-19.5 0.5,-19.5"/>
<text text-anchor="middle" x="57" y="-26.5" font-family="Helvetica,sans-Serif" font-size="10.00">fcs_get_position_char</text>
</g>
<!-- Node2 -->
<g id="node3" class="node"><title>Node2</title>
<a xlink:href="../../d6/dec/classfcs__module.html#a5111f8f9076f71e7a9e4b8baefc89c35" target="_top" xlink:title="fcsresult_geterrormessage">
<polygon fill="none" stroke="black" points="150.5,-38.5 150.5,-57.5 287.5,-57.5 287.5,-38.5 150.5,-38.5"/>
<text text-anchor="middle" x="219" y="-45.5" font-family="Helvetica,sans-Serif" font-size="10.00">fcsresult_geterrormessage</text>
</a>
</g>
<!-- Node1&#45;&gt;Node2 -->
<g id="edge2" class="edge"><title>Node1&#45;&gt;Node2</title>
<path fill="none" stroke="midnightblue" d="M123.727,-36.8051C132.546,-37.8523 141.604,-38.928 150.454,-39.9789"/>
<polygon fill="midnightblue" stroke="midnightblue" points="123.854,-33.2957 113.511,-35.592 123.029,-40.2468 123.854,-33.2957"/>
</g>
<!-- Node3 -->
<g id="node5" class="node"><title>Node3</title>
<a xlink:href="../../d6/dec/classfcs__module.html#aae9328e1288b731e7e1e5dadc8ceecf4" target="_top" xlink:title="fcsresult_geterrorsource">
<polygon fill="none" stroke="black" points="156.5,-0.5 156.5,-19.5 281.5,-19.5 281.5,-0.5 156.5,-0.5"/>
<text text-anchor="middle" x="219" y="-7.5" font-family="Helvetica,sans-Serif" font-size="10.00">fcsresult_geterrorsource</text>
</a>
</g>
<!-- Node1&#45;&gt;Node3 -->
<g id="edge4" class="edge"><title>Node1&#45;&gt;Node3</title>
<path fill="none" stroke="midnightblue" d="M123.708,-21.1972C134.484,-19.9175 145.619,-18.5952 156.295,-17.3275"/>
<polygon fill="midnightblue" stroke="midnightblue" points="123.029,-17.7532 113.511,-22.408 123.854,-24.7043 123.029,-17.7532"/>
</g>
</g>
</svg>
