<?xml version="1.0" encoding="UTF-8" standalone="no"?>
<!DOCTYPE svg PUBLIC "-//W3C//DTD SVG 1.1//EN"
 "http://www.w3.org/Graphics/SVG/1.1/DTD/svg11.dtd">
<!-- Generated by graphviz version 2.28.0 (20130622.2148)
 -->
<!-- Title: /home5/m.winkel/workspace/scafacos/scafacos.git/src/fcs.h Pages: 1 -->
<svg width="313pt" height="218pt"
 viewBox="0.00 0.00 313.00 218.00" xmlns="http://www.w3.org/2000/svg" xmlns:xlink="http://www.w3.org/1999/xlink">
<g id="graph1" class="graph" transform="scale(1 1) rotate(0) translate(4 214)">
<title>/home5/m.winkel/workspace/scafacos/scafacos.git/src/fcs.h</title>
<!-- Node1 -->
<g id="node1" class="node"><title>Node1</title>
<polygon fill="#bfbfbf" stroke="black" points="49.5,-168.5 49.5,-209.5 194.5,-209.5 194.5,-168.5 49.5,-168.5"/>
<text text-anchor="start" x="57.5" y="-197.5" font-family="Helvetica,sans-Serif" font-size="10.00">/home5/m.winkel/workspace</text>
<text text-anchor="start" x="57.5" y="-186.5" font-family="Helvetica,sans-Serif" font-size="10.00">/scafacos/scafacos.git</text>
<text text-anchor="middle" x="122" y="-175.5" font-family="Helvetica,sans-Serif" font-size="10.00">/src/fcs.h</text>
</g>
<!-- Node2 -->
<g id="node3" class="node"><title>Node2</title>
<polygon fill="none" stroke="#bfbfbf" points="-0.5,-112.5 -0.5,-131.5 68.5,-131.5 68.5,-112.5 -0.5,-112.5"/>
<text text-anchor="middle" x="34" y="-119.5" font-family="Helvetica,sans-Serif" font-size="10.00">fcs_config.h</text>
</g>
<!-- Node1&#45;&gt;Node2 -->
<g id="edge2" class="edge"><title>Node1&#45;&gt;Node2</title>
<path fill="none" stroke="midnightblue" d="M95.5971,-168.498C82.2348,-158.628 66.2801,-146.843 53.9567,-137.741"/>
<polygon fill="midnightblue" stroke="midnightblue" points="55.8373,-134.779 45.7141,-131.652 51.6783,-140.409 55.8373,-134.779"/>
</g>
<!-- Node3 -->
<g id="node5" class="node"><title>Node3</title>
<polygon fill="none" stroke="#bfbfbf" points="121.5,-0.5 121.5,-19.5 212.5,-19.5 212.5,-0.5 121.5,-0.5"/>
<text text-anchor="middle" x="167" y="-7.5" font-family="Helvetica,sans-Serif" font-size="10.00">FCSDefinitions.h</text>
</g>
<!-- Node1&#45;&gt;Node3 -->
<g id="edge4" class="edge"><title>Node1&#45;&gt;Node3</title>
<path fill="none" stroke="midnightblue" d="M115.743,-168.166C108.456,-141.391 99.3927,-92.8013 116,-56 121.616,-43.5553 132.563,-33.1723 142.879,-25.5273"/>
<polygon fill="midnightblue" stroke="midnightblue" points="145.006,-28.3123 151.266,-19.7643 141.042,-22.5431 145.006,-28.3123"/>
</g>
<!-- Node4 -->
<g id="node7" class="node"><title>Node4</title>
<a xlink:href="../../d9/dec/a00090.html" target="_top" xlink:title="FCSResult_p.h">
<polygon fill="none" stroke="black" points="125.5,-56.5 125.5,-75.5 208.5,-75.5 208.5,-56.5 125.5,-56.5"/>
<text text-anchor="middle" x="167" y="-63.5" font-family="Helvetica,sans-Serif" font-size="10.00">FCSResult_p.h</text>
</a>
</g>
<!-- Node1&#45;&gt;Node4 -->
<g id="edge6" class="edge"><title>Node1&#45;&gt;Node4</title>
<path fill="none" stroke="midnightblue" d="M129.33,-168.29C137.891,-145.27 151.937,-107.503 160.243,-85.1677"/>
<polygon fill="midnightblue" stroke="midnightblue" points="163.606,-86.1677 163.811,-75.5748 157.045,-83.7276 163.606,-86.1677"/>
</g>
<!-- Node5 -->
<g id="node10" class="node"><title>Node5</title>
<a xlink:href="../../db/dab/a00089.html" target="_top" xlink:title="supplying the C&#45;interface routine for the ScaFaCoS library ">
<polygon fill="none" stroke="black" points="183.5,-112.5 183.5,-131.5 276.5,-131.5 276.5,-112.5 183.5,-112.5"/>
<text text-anchor="middle" x="230" y="-119.5" font-family="Helvetica,sans-Serif" font-size="10.00">FCSInterface_p.h</text>
</a>
</g>
<!-- Node1&#45;&gt;Node5 -->
<g id="edge10" class="edge"><title>Node1&#45;&gt;Node5</title>
<path fill="none" stroke="midnightblue" d="M154.404,-168.498C171.28,-158.34 191.527,-146.155 206.818,-136.952"/>
<polygon fill="midnightblue" stroke="midnightblue" points="208.86,-139.808 215.624,-131.652 205.251,-133.81 208.86,-139.808"/>
</g>
<!-- Node4&#45;&gt;Node3 -->
<g id="edge8" class="edge"><title>Node4&#45;&gt;Node3</title>
<path fill="none" stroke="midnightblue" d="M167,-56.083C167,-49.0059 167,-38.8611 167,-29.9865"/>
<polygon fill="midnightblue" stroke="midnightblue" points="170.5,-29.751 167,-19.7511 163.5,-29.7511 170.5,-29.751"/>
</g>
<!-- Node5&#45;&gt;Node3 -->
<g id="edge14" class="edge"><title>Node5&#45;&gt;Node3</title>
<path fill="none" stroke="midnightblue" d="M229.967,-112.409C229.563,-99.3752 227.365,-74.2004 217,-56 210.137,-43.949 198.882,-33.3954 188.787,-25.543"/>
<polygon fill="midnightblue" stroke="midnightblue" points="190.834,-22.704 180.702,-19.6087 186.693,-28.3472 190.834,-22.704"/>
</g>
<!-- Node5&#45;&gt;Node4 -->
<g id="edge16" class="edge"><title>Node5&#45;&gt;Node4</title>
<path fill="none" stroke="midnightblue" d="M219.878,-112.324C210.474,-104.263 196.256,-92.0765 184.931,-82.3695"/>
<polygon fill="midnightblue" stroke="midnightblue" points="187.177,-79.6844 177.306,-75.8339 182.621,-84.9993 187.177,-79.6844"/>
</g>
<!-- Node6 -->
<g id="node12" class="node"><title>Node6</title>
<polygon fill="none" stroke="#bfbfbf" points="265,-56.5 265,-75.5 305,-75.5 305,-56.5 265,-56.5"/>
<text text-anchor="middle" x="285" y="-63.5" font-family="Helvetica,sans-Serif" font-size="10.00">mpi.h</text>
</g>
<!-- Node5&#45;&gt;Node6 -->
<g id="edge12" class="edge"><title>Node5&#45;&gt;Node6</title>
<path fill="none" stroke="midnightblue" d="M239.082,-112.083C247.171,-104.141 259.195,-92.3354 268.91,-82.7973"/>
<polygon fill="midnightblue" stroke="midnightblue" points="271.403,-85.2545 276.087,-75.7511 266.499,-80.2595 271.403,-85.2545"/>
</g>
</g>
</svg>
