<?xml version="1.0" encoding="UTF-8" standalone="no"?>
<!DOCTYPE svg PUBLIC "-//W3C//DTD SVG 1.1//EN"
 "http://www.w3.org/Graphics/SVG/1.1/DTD/svg11.dtd">
<!-- Generated by graphviz version 2.28.0 (20130622.2148)
 -->
<!-- Title: fcsresult_geterrorsource Pages: 1 -->
<svg width="310pt" height="88pt"
 viewBox="0.00 0.00 310.00 88.00" xmlns="http://www.w3.org/2000/svg" xmlns:xlink="http://www.w3.org/1999/xlink">
<g id="graph1" class="graph" transform="scale(1 1) rotate(0) translate(4 84)">
<title>fcsresult_geterrorsource</title>
<!-- Node1 -->
<g id="node1" class="node"><title>Node1</title>
<polygon fill="#bfbfbf" stroke="black" points="0.5,-24.5 0.5,-43.5 125.5,-43.5 125.5,-24.5 0.5,-24.5"/>
<text text-anchor="middle" x="63" y="-31.5" font-family="Helvetica,sans-Serif" font-size="10.00">fcsresult_geterrorsource</text>
</g>
<!-- Node2 -->
<g id="node3" class="node"><title>Node2</title>
<a xlink:href="../../db/db6/a00074.html#aa3d7a0bfec7f2637b5a211e69a37441a" target="_top" xlink:title="fcs_module::fcsResult\l_getErrorSource_f::fcsresult\l_geterrorsource_f">
<polygon fill="none" stroke="black" points="162,-38.5 162,-79.5 302,-79.5 302,-38.5 162,-38.5"/>
<text text-anchor="start" x="170" y="-67.5" font-family="Helvetica,sans-Serif" font-size="10.00">fcs_module::fcsResult</text>
<text text-anchor="start" x="170" y="-56.5" font-family="Helvetica,sans-Serif" font-size="10.00">_getErrorSource_f::fcsresult</text>
<text text-anchor="middle" x="232" y="-45.5" font-family="Helvetica,sans-Serif" font-size="10.00">_geterrorsource_f</text>
</a>
</g>
<!-- Node1&#45;&gt;Node2 -->
<g id="edge2" class="edge"><title>Node1&#45;&gt;Node2</title>
<path fill="none" stroke="midnightblue" d="M125.71,-43.238C134.284,-44.5215 143.187,-45.8543 152.022,-47.177"/>
<polygon fill="midnightblue" stroke="midnightblue" points="151.539,-50.6436 161.947,-48.6628 152.576,-43.7208 151.539,-50.6436"/>
</g>
<!-- Node3 -->
<g id="node5" class="node"><title>Node3</title>
<a xlink:href="../../d5/db6/a00042.html#a09bb1d57d37e3f12d2944c5ddc451dad" target="_top" xlink:title="fcs_get_position_char">
<polygon fill="none" stroke="black" points="175.5,-0.5 175.5,-19.5 288.5,-19.5 288.5,-0.5 175.5,-0.5"/>
<text text-anchor="middle" x="232" y="-7.5" font-family="Helvetica,sans-Serif" font-size="10.00">fcs_get_position_char</text>
</a>
</g>
<!-- Node1&#45;&gt;Node3 -->
<g id="edge4" class="edge"><title>Node1&#45;&gt;Node3</title>
<path fill="none" stroke="midnightblue" d="M125.71,-25.1315C138.54,-23.2876 152.108,-21.3377 165.083,-19.4731"/>
<polygon fill="midnightblue" stroke="midnightblue" points="165.936,-22.8866 175.336,-17.9996 164.94,-15.9578 165.936,-22.8866"/>
</g>
</g>
</svg>
