<?xml version="1.0" encoding="UTF-8" standalone="no"?>
<!DOCTYPE svg PUBLIC "-//W3C//DTD SVG 1.1//EN"
 "http://www.w3.org/Graphics/SVG/1.1/DTD/svg11.dtd">
<!-- Generated by graphviz version 2.28.0 (20130622.2148)
 -->
<!-- Title: fcsresult_geterrormessage Pages: 1 -->
<svg width="332pt" height="88pt"
 viewBox="0.00 0.00 332.00 88.00" xmlns="http://www.w3.org/2000/svg" xmlns:xlink="http://www.w3.org/1999/xlink">
<g id="graph1" class="graph" transform="scale(1 1) rotate(0) translate(4 84)">
<title>fcsresult_geterrormessage</title>
<!-- Node1 -->
<g id="node1" class="node"><title>Node1</title>
<polygon fill="#bfbfbf" stroke="black" points="0.5,-24.5 0.5,-43.5 137.5,-43.5 137.5,-24.5 0.5,-24.5"/>
<text text-anchor="middle" x="69" y="-31.5" font-family="Helvetica,sans-Serif" font-size="10.00">fcsresult_geterrormessage</text>
</g>
<!-- Node2 -->
<g id="node3" class="node"><title>Node2</title>
<a xlink:href="../../d1/d6e/a00073.html#a79a90d7ec2c3b65dbe52a7ce6bfd3bc5" target="_top" xlink:title="fcs_module::fcsResult\l_getErrorMessage_f::fcsresult\l_geterrormessage_f">
<polygon fill="none" stroke="black" points="174,-38.5 174,-79.5 324,-79.5 324,-38.5 174,-38.5"/>
<text text-anchor="start" x="182" y="-67.5" font-family="Helvetica,sans-Serif" font-size="10.00">fcs_module::fcsResult</text>
<text text-anchor="start" x="182" y="-56.5" font-family="Helvetica,sans-Serif" font-size="10.00">_getErrorMessage_f::fcsresult</text>
<text text-anchor="middle" x="249" y="-45.5" font-family="Helvetica,sans-Serif" font-size="10.00">_geterrormessage_f</text>
</a>
</g>
<!-- Node1&#45;&gt;Node2 -->
<g id="edge2" class="edge"><title>Node1&#45;&gt;Node2</title>
<path fill="none" stroke="midnightblue" d="M137.548,-43.4871C146.194,-44.7014 155.128,-45.9562 163.995,-47.2015"/>
<polygon fill="midnightblue" stroke="midnightblue" points="163.57,-50.6761 173.959,-48.601 164.543,-43.7441 163.57,-50.6761"/>
</g>
<!-- Node3 -->
<g id="node5" class="node"><title>Node3</title>
<a xlink:href="../../d5/db6/a00042.html#a09bb1d57d37e3f12d2944c5ddc451dad" target="_top" xlink:title="fcs_get_position_char">
<polygon fill="none" stroke="black" points="192.5,-0.5 192.5,-19.5 305.5,-19.5 305.5,-0.5 192.5,-0.5"/>
<text text-anchor="middle" x="249" y="-7.5" font-family="Helvetica,sans-Serif" font-size="10.00">fcs_get_position_char</text>
</a>
</g>
<!-- Node1&#45;&gt;Node3 -->
<g id="edge4" class="edge"><title>Node1&#45;&gt;Node3</title>
<path fill="none" stroke="midnightblue" d="M137.548,-24.8924C152.251,-22.91 167.785,-20.8155 182.411,-18.8435"/>
<polygon fill="midnightblue" stroke="midnightblue" points="182.927,-22.3056 192.37,-17.5007 181.992,-15.3684 182.927,-22.3056"/>
</g>
</g>
</svg>
