<?xml version="1.0" encoding="UTF-8" standalone="no"?>
<!DOCTYPE svg PUBLIC "-//W3C//DTD SVG 1.1//EN"
 "http://www.w3.org/Graphics/SVG/1.1/DTD/svg11.dtd">
<!-- Generated by graphviz version 2.28.0 (20130622.2148)
 -->
<!-- Title: /home5/m.winkel/workspace/scafacos/scafacos.git/src/FCSInterface_p.h Pages: 1 -->
<svg width="191pt" height="162pt"
 viewBox="0.00 0.00 191.00 162.00" xmlns="http://www.w3.org/2000/svg" xmlns:xlink="http://www.w3.org/1999/xlink">
<g id="graph1" class="graph" transform="scale(1 1) rotate(0) translate(4 158)">
<title>/home5/m.winkel/workspace/scafacos/scafacos.git/src/FCSInterface_p.h</title>
<!-- Node1 -->
<g id="node1" class="node"><title>Node1</title>
<polygon fill="#bfbfbf" stroke="black" points="-0.5,-112.5 -0.5,-153.5 144.5,-153.5 144.5,-112.5 -0.5,-112.5"/>
<text text-anchor="start" x="7.5" y="-141.5" font-family="Helvetica,sans-Serif" font-size="10.00">/home5/m.winkel/workspace</text>
<text text-anchor="start" x="7.5" y="-130.5" font-family="Helvetica,sans-Serif" font-size="10.00">/scafacos/scafacos.git</text>
<text text-anchor="middle" x="72" y="-119.5" font-family="Helvetica,sans-Serif" font-size="10.00">/src/FCSInterface_p.h</text>
</g>
<!-- Node2 -->
<g id="node3" class="node"><title>Node2</title>
<polygon fill="none" stroke="#bfbfbf" points="4,-56.5 4,-75.5 44,-75.5 44,-56.5 4,-56.5"/>
<text text-anchor="middle" x="24" y="-63.5" font-family="Helvetica,sans-Serif" font-size="10.00">mpi.h</text>
</g>
<!-- Node1&#45;&gt;Node2 -->
<g id="edge2" class="edge"><title>Node1&#45;&gt;Node2</title>
<path fill="none" stroke="midnightblue" d="M57.5984,-112.498C50.876,-103.395 42.9506,-92.6623 36.486,-83.9081"/>
<polygon fill="midnightblue" stroke="midnightblue" points="39.1455,-81.6177 30.3895,-75.6525 33.5145,-85.776 39.1455,-81.6177"/>
</g>
<!-- Node3 -->
<g id="node5" class="node"><title>Node3</title>
<polygon fill="none" stroke="#bfbfbf" points="61.5,-0.5 61.5,-19.5 152.5,-19.5 152.5,-0.5 61.5,-0.5"/>
<text text-anchor="middle" x="107" y="-7.5" font-family="Helvetica,sans-Serif" font-size="10.00">FCSDefinitions.h</text>
</g>
<!-- Node1&#45;&gt;Node3 -->
<g id="edge4" class="edge"><title>Node1&#45;&gt;Node3</title>
<path fill="none" stroke="midnightblue" d="M76.8338,-112.219C80.6855,-96.8238 86.3517,-74.9599 92,-56 94.6484,-47.11 97.8702,-37.3312 100.648,-29.1668"/>
<polygon fill="midnightblue" stroke="midnightblue" points="104.005,-30.1692 103.959,-19.5745 97.3877,-27.8855 104.005,-30.1692"/>
</g>
<!-- Node4 -->
<g id="node7" class="node"><title>Node4</title>
<a xlink:href="../../d9/dec/a00090.html" target="_top" xlink:title="FCSResult_p.h">
<polygon fill="none" stroke="black" points="100.5,-56.5 100.5,-75.5 183.5,-75.5 183.5,-56.5 100.5,-56.5"/>
<text text-anchor="middle" x="142" y="-63.5" font-family="Helvetica,sans-Serif" font-size="10.00">FCSResult_p.h</text>
</a>
</g>
<!-- Node1&#45;&gt;Node4 -->
<g id="edge6" class="edge"><title>Node1&#45;&gt;Node4</title>
<path fill="none" stroke="midnightblue" d="M93.0023,-112.498C103.322,-102.915 115.585,-91.5281 125.262,-82.5428"/>
<polygon fill="midnightblue" stroke="midnightblue" points="127.736,-85.0218 132.682,-75.6525 122.972,-79.8922 127.736,-85.0218"/>
</g>
<!-- Node4&#45;&gt;Node3 -->
<g id="edge8" class="edge"><title>Node4&#45;&gt;Node3</title>
<path fill="none" stroke="midnightblue" d="M136.22,-56.083C131.328,-48.5341 124.173,-37.4948 118.167,-28.2298"/>
<polygon fill="midnightblue" stroke="midnightblue" points="121.048,-26.239 112.672,-19.7511 115.174,-30.0463 121.048,-26.239"/>
</g>
</g>
</svg>
