<?xml version="1.0" encoding="UTF-8" standalone="no"?>
<!DOCTYPE svg PUBLIC "-//W3C//DTD SVG 1.1//EN"
 "http://www.w3.org/Graphics/SVG/1.1/DTD/svg11.dtd">
<!-- Generated by graphviz version 2.28.0 (20130622.2148)
 -->
<!-- Title: fcs.h Pages: 1 -->
<svg width="313pt" height="196pt"
 viewBox="0.00 0.00 313.00 196.00" xmlns="http://www.w3.org/2000/svg" xmlns:xlink="http://www.w3.org/1999/xlink">
<g id="graph1" class="graph" transform="scale(1 1) rotate(0) translate(4 192)">
<title>fcs.h</title>
<!-- Node1 -->
<g id="node1" class="node"><title>Node1</title>
<polygon fill="#bfbfbf" stroke="black" points="103.5,-168.5 103.5,-187.5 140.5,-187.5 140.5,-168.5 103.5,-168.5"/>
<text text-anchor="middle" x="122" y="-175.5" font-family="Helvetica,sans-Serif" font-size="10.00">fcs.h</text>
</g>
<!-- Node2 -->
<g id="node3" class="node"><title>Node2</title>
<polygon fill="none" stroke="#bfbfbf" points="-0.5,-112.5 -0.5,-131.5 68.5,-131.5 68.5,-112.5 -0.5,-112.5"/>
<text text-anchor="middle" x="34" y="-119.5" font-family="Helvetica,sans-Serif" font-size="10.00">fcs_config.h</text>
</g>
<!-- Node1&#45;&gt;Node2 -->
<g id="edge2" class="edge"><title>Node1&#45;&gt;Node2</title>
<path fill="none" stroke="midnightblue" d="M107.861,-168.324C94.1337,-159.9 73.0637,-146.971 56.9357,-137.074"/>
<polygon fill="midnightblue" stroke="midnightblue" points="58.4574,-133.902 48.1036,-131.655 54.7963,-139.868 58.4574,-133.902"/>
</g>
<!-- Node3 -->
<g id="node5" class="node"><title>Node3</title>
<polygon fill="none" stroke="#bfbfbf" points="121.5,-0.5 121.5,-19.5 212.5,-19.5 212.5,-0.5 121.5,-0.5"/>
<text text-anchor="middle" x="167" y="-7.5" font-family="Helvetica,sans-Serif" font-size="10.00">FCSDefinitions.h</text>
</g>
<!-- Node1&#45;&gt;Node3 -->
<g id="edge4" class="edge"><title>Node1&#45;&gt;Node3</title>
<path fill="none" stroke="midnightblue" d="M118.979,-168.289C112.363,-147.674 98.5243,-94.7256 116,-56 121.616,-43.5553 132.563,-33.1723 142.879,-25.5273"/>
<polygon fill="midnightblue" stroke="midnightblue" points="145.006,-28.3123 151.266,-19.7643 141.042,-22.5431 145.006,-28.3123"/>
</g>
<!-- Node4 -->
<g id="node7" class="node"><title>Node4</title>
<a xlink:href="../../db/d69/_f_c_s_result__p_8h.html" target="_top" xlink:title="FCSResult_p.h">
<polygon fill="none" stroke="black" points="125.5,-56.5 125.5,-75.5 208.5,-75.5 208.5,-56.5 125.5,-56.5"/>
<text text-anchor="middle" x="167" y="-63.5" font-family="Helvetica,sans-Serif" font-size="10.00">FCSResult_p.h</text>
</a>
</g>
<!-- Node1&#45;&gt;Node4 -->
<g id="edge6" class="edge"><title>Node1&#45;&gt;Node4</title>
<path fill="none" stroke="midnightblue" d="M125.531,-168.368C132.859,-150.456 149.85,-108.923 159.658,-84.9482"/>
<polygon fill="midnightblue" stroke="midnightblue" points="162.938,-86.1721 163.485,-75.5914 156.46,-83.5217 162.938,-86.1721"/>
</g>
<!-- Node5 -->
<g id="node10" class="node"><title>Node5</title>
<a xlink:href="../../dd/d00/_f_c_s_interface__p_8h.html" target="_top" xlink:title="supplying the C&#45;interface routine for the ScaFaCoS library ">
<polygon fill="none" stroke="black" points="183.5,-112.5 183.5,-131.5 276.5,-131.5 276.5,-112.5 183.5,-112.5"/>
<text text-anchor="middle" x="230" y="-119.5" font-family="Helvetica,sans-Serif" font-size="10.00">FCSInterface_p.h</text>
</a>
</g>
<!-- Node1&#45;&gt;Node5 -->
<g id="edge10" class="edge"><title>Node1&#45;&gt;Node5</title>
<path fill="none" stroke="midnightblue" d="M139.352,-168.324C156.672,-159.664 183.515,-146.242 203.502,-136.249"/>
<polygon fill="midnightblue" stroke="midnightblue" points="205.312,-139.257 212.691,-131.655 202.181,-132.996 205.312,-139.257"/>
</g>
<!-- Node4&#45;&gt;Node3 -->
<g id="edge8" class="edge"><title>Node4&#45;&gt;Node3</title>
<path fill="none" stroke="midnightblue" d="M167,-56.083C167,-49.0059 167,-38.8611 167,-29.9865"/>
<polygon fill="midnightblue" stroke="midnightblue" points="170.5,-29.751 167,-19.7511 163.5,-29.7511 170.5,-29.751"/>
</g>
<!-- Node5&#45;&gt;Node3 -->
<g id="edge14" class="edge"><title>Node5&#45;&gt;Node3</title>
<path fill="none" stroke="midnightblue" d="M229.967,-112.409C229.563,-99.3752 227.365,-74.2004 217,-56 210.137,-43.949 198.882,-33.3954 188.787,-25.543"/>
<polygon fill="midnightblue" stroke="midnightblue" points="190.834,-22.704 180.702,-19.6087 186.693,-28.3472 190.834,-22.704"/>
</g>
<!-- Node5&#45;&gt;Node4 -->
<g id="edge16" class="edge"><title>Node5&#45;&gt;Node4</title>
<path fill="none" stroke="midnightblue" d="M219.878,-112.324C210.474,-104.263 196.256,-92.0765 184.931,-82.3695"/>
<polygon fill="midnightblue" stroke="midnightblue" points="187.177,-79.6844 177.306,-75.8339 182.621,-84.9993 187.177,-79.6844"/>
</g>
<!-- Node6 -->
<g id="node12" class="node"><title>Node6</title>
<polygon fill="none" stroke="#bfbfbf" points="265,-56.5 265,-75.5 305,-75.5 305,-56.5 265,-56.5"/>
<text text-anchor="middle" x="285" y="-63.5" font-family="Helvetica,sans-Serif" font-size="10.00">mpi.h</text>
</g>
<!-- Node5&#45;&gt;Node6 -->
<g id="edge12" class="edge"><title>Node5&#45;&gt;Node6</title>
<path fill="none" stroke="midnightblue" d="M239.082,-112.083C247.171,-104.141 259.195,-92.3354 268.91,-82.7973"/>
<polygon fill="midnightblue" stroke="midnightblue" points="271.403,-85.2545 276.087,-75.7511 266.499,-80.2595 271.403,-85.2545"/>
</g>
</g>
</svg>
