<?xml version="1.0" encoding="UTF-8" standalone="no"?>
<!DOCTYPE svg PUBLIC "-//W3C//DTD SVG 1.1//EN"
 "http://www.w3.org/Graphics/SVG/1.1/DTD/svg11.dtd">
<!-- Generated by graphviz version 2.28.0 (20130622.2148)
 -->
<!-- Title: /home5/m.winkel/workspace/scafacos/scafacos.git/src/fcs_mmm1d_p.h Pages: 1 -->
<svg width="223pt" height="218pt"
 viewBox="0.00 0.00 223.00 218.00" xmlns="http://www.w3.org/2000/svg" xmlns:xlink="http://www.w3.org/1999/xlink">
<g id="graph1" class="graph" transform="scale(1 1) rotate(0) translate(4 214)">
<title>/home5/m.winkel/workspace/scafacos/scafacos.git/src/fcs_mmm1d_p.h</title>
<!-- Node1 -->
<g id="node1" class="node"><title>Node1</title>
<polygon fill="#bfbfbf" stroke="black" points="-0.5,-168.5 -0.5,-209.5 144.5,-209.5 144.5,-168.5 -0.5,-168.5"/>
<text text-anchor="start" x="7.5" y="-197.5" font-family="Helvetica,sans-Serif" font-size="10.00">/home5/m.winkel/workspace</text>
<text text-anchor="start" x="7.5" y="-186.5" font-family="Helvetica,sans-Serif" font-size="10.00">/scafacos/scafacos.git</text>
<text text-anchor="middle" x="72" y="-175.5" font-family="Helvetica,sans-Serif" font-size="10.00">/src/fcs_mmm1d_p.h</text>
</g>
<!-- Node2 -->
<g id="node3" class="node"><title>Node2</title>
<polygon fill="none" stroke="#bfbfbf" points="31.5,-0.5 31.5,-19.5 122.5,-19.5 122.5,-0.5 31.5,-0.5"/>
<text text-anchor="middle" x="77" y="-7.5" font-family="Helvetica,sans-Serif" font-size="10.00">FCSDefinitions.h</text>
</g>
<!-- Node1&#45;&gt;Node2 -->
<g id="edge2" class="edge"><title>Node1&#45;&gt;Node2</title>
<path fill="none" stroke="midnightblue" d="M55.8521,-168.344C36.4413,-142.18 8.53116,-94.7105 26,-56 31.6159,-43.5553 42.5627,-33.1723 52.8792,-25.5273"/>
<polygon fill="midnightblue" stroke="midnightblue" points="55.0064,-28.3123 61.266,-19.7643 51.0421,-22.5431 55.0064,-28.3123"/>
</g>
<!-- Node3 -->
<g id="node5" class="node"><title>Node3</title>
<a xlink:href="../../d9/dec/a00090.html" target="_top" xlink:title="FCSResult_p.h">
<polygon fill="none" stroke="black" points="35.5,-56.5 35.5,-75.5 118.5,-75.5 118.5,-56.5 35.5,-56.5"/>
<text text-anchor="middle" x="77" y="-63.5" font-family="Helvetica,sans-Serif" font-size="10.00">FCSResult_p.h</text>
</a>
</g>
<!-- Node1&#45;&gt;Node3 -->
<g id="edge4" class="edge"><title>Node1&#45;&gt;Node3</title>
<path fill="none" stroke="midnightblue" d="M72.8145,-168.29C73.757,-145.48 75.298,-108.189 76.2239,-85.7807"/>
<polygon fill="midnightblue" stroke="midnightblue" points="79.7297,-85.7108 76.6457,-75.5748 72.7357,-85.4217 79.7297,-85.7108"/>
</g>
<!-- Node4 -->
<g id="node8" class="node"><title>Node4</title>
<a xlink:href="../../db/dab/a00089.html" target="_top" xlink:title="supplying the C&#45;interface routine for the ScaFaCoS library ">
<polygon fill="none" stroke="black" points="100.5,-112.5 100.5,-131.5 193.5,-131.5 193.5,-112.5 100.5,-112.5"/>
<text text-anchor="middle" x="147" y="-119.5" font-family="Helvetica,sans-Serif" font-size="10.00">FCSInterface_p.h</text>
</a>
</g>
<!-- Node1&#45;&gt;Node4 -->
<g id="edge8" class="edge"><title>Node1&#45;&gt;Node4</title>
<path fill="none" stroke="midnightblue" d="M94.5025,-168.498C105.67,-158.82 118.961,-147.3 129.376,-138.274"/>
<polygon fill="midnightblue" stroke="midnightblue" points="131.752,-140.847 137.016,-131.652 127.167,-135.557 131.752,-140.847"/>
</g>
<!-- Node3&#45;&gt;Node2 -->
<g id="edge6" class="edge"><title>Node3&#45;&gt;Node2</title>
<path fill="none" stroke="midnightblue" d="M77,-56.083C77,-49.0059 77,-38.8611 77,-29.9865"/>
<polygon fill="midnightblue" stroke="midnightblue" points="80.5001,-29.751 77,-19.7511 73.5001,-29.7511 80.5001,-29.751"/>
</g>
<!-- Node4&#45;&gt;Node2 -->
<g id="edge12" class="edge"><title>Node4&#45;&gt;Node2</title>
<path fill="none" stroke="midnightblue" d="M145.851,-112.386C143.794,-99.3238 138.564,-74.1115 127,-56 119.439,-44.1574 107.941,-33.5069 97.8768,-25.5437"/>
<polygon fill="midnightblue" stroke="midnightblue" points="99.9717,-22.7398 89.8781,-19.5194 95.7604,-28.3313 99.9717,-22.7398"/>
</g>
<!-- Node4&#45;&gt;Node3 -->
<g id="edge14" class="edge"><title>Node4&#45;&gt;Node3</title>
<path fill="none" stroke="midnightblue" d="M135.753,-112.324C125.203,-104.185 109.199,-91.8395 96.5578,-82.0874"/>
<polygon fill="midnightblue" stroke="midnightblue" points="98.507,-79.1707 88.4513,-75.8339 94.2314,-84.7132 98.507,-79.1707"/>
</g>
<!-- Node5 -->
<g id="node10" class="node"><title>Node5</title>
<polygon fill="none" stroke="#bfbfbf" points="175,-56.5 175,-75.5 215,-75.5 215,-56.5 175,-56.5"/>
<text text-anchor="middle" x="195" y="-63.5" font-family="Helvetica,sans-Serif" font-size="10.00">mpi.h</text>
</g>
<!-- Node4&#45;&gt;Node5 -->
<g id="edge10" class="edge"><title>Node4&#45;&gt;Node5</title>
<path fill="none" stroke="midnightblue" d="M154.926,-112.083C161.846,-104.298 172.065,-92.8015 180.452,-83.3665"/>
<polygon fill="midnightblue" stroke="midnightblue" points="183.194,-85.5505 187.221,-75.7511 177.962,-80.8999 183.194,-85.5505"/>
</g>
</g>
</svg>
