<?xml version="1.0" encoding="UTF-8" standalone="no"?>
<!DOCTYPE svg PUBLIC "-//W3C//DTD SVG 1.1//EN"
 "http://www.w3.org/Graphics/SVG/1.1/DTD/svg11.dtd">
<!-- Generated by graphviz version 2.40.1 (20161225.0304)
 -->
<!-- Title: FCSInterface_p.h Pages: 1 -->
<svg width="190pt" height="140pt"
 viewBox="0.00 0.00 189.50 140.00" xmlns="http://www.w3.org/2000/svg" xmlns:xlink="http://www.w3.org/1999/xlink">
<g id="graph0" class="graph" transform="scale(1 1) rotate(0) translate(4 136)">
<title>FCSInterface_p.h</title>
<!-- Node0 -->
<g id="node1" class="node">
<title>Node0</title>
<polygon fill="#bfbfbf" stroke="#000000" points="22.5,-112.5 22.5,-131.5 116.5,-131.5 116.5,-112.5 22.5,-112.5"/>
<text text-anchor="middle" x="69.5" y="-119.5" font-family="Helvetica,sans-Serif" font-size="10.00" fill="#000000">FCSInterface_p.h</text>
</g>
<!-- Node1 -->
<g id="node2" class="node">
<title>Node1</title>
<polygon fill="none" stroke="#bfbfbf" points="0,-56.5 0,-75.5 41,-75.5 41,-56.5 0,-56.5"/>
<text text-anchor="middle" x="20.5" y="-63.5" font-family="Helvetica,sans-Serif" font-size="10.00" fill="#000000">mpi.h</text>
</g>
<!-- Node0&#45;&gt;Node1 -->
<g id="edge1" class="edge">
<title>Node0&#45;&gt;Node1</title>
<path fill="none" stroke="#191970" d="M60.9649,-112.2455C54.0088,-104.2958 44.0117,-92.8706 35.6949,-83.3656"/>
<polygon fill="#191970" stroke="#191970" points="38.1564,-80.8637 28.9373,-75.6427 32.8884,-85.4732 38.1564,-80.8637"/>
</g>
<!-- Node2 -->
<g id="node3" class="node">
<title>Node2</title>
<polygon fill="none" stroke="#bfbfbf" points="58.5,-.5 58.5,-19.5 150.5,-19.5 150.5,-.5 58.5,-.5"/>
<text text-anchor="middle" x="104.5" y="-7.5" font-family="Helvetica,sans-Serif" font-size="10.00" fill="#000000">FCSDefinitions.h</text>
</g>
<!-- Node0&#45;&gt;Node2 -->
<g id="edge2" class="edge">
<title>Node0&#45;&gt;Node2</title>
<path fill="none" stroke="#191970" d="M72.1664,-112.1097C75.6993,-99.158 82.2199,-75.7739 88.5,-56 91.3073,-47.1606 94.6463,-37.4511 97.546,-29.2399"/>
<polygon fill="#191970" stroke="#191970" points="100.8434,-30.4133 100.9108,-19.8187 94.2512,-28.0588 100.8434,-30.4133"/>
</g>
<!-- Node3 -->
<g id="node4" class="node">
<title>Node3</title>
<g id="a_node4"><a xlink:href="_f_c_s_result__p_8h.html" target="_top" xlink:title="public interface definitions for the FCSResult&#45;object that is used for handling the return state of t...">
<polygon fill="none" stroke="#000000" points="97.5,-56.5 97.5,-75.5 181.5,-75.5 181.5,-56.5 97.5,-56.5"/>
<text text-anchor="middle" x="139.5" y="-63.5" font-family="Helvetica,sans-Serif" font-size="10.00" fill="#000000">FCSResult_p.h</text>
</a>
</g>
</g>
<!-- Node0&#45;&gt;Node3 -->
<g id="edge3" class="edge">
<title>Node0&#45;&gt;Node3</title>
<path fill="none" stroke="#191970" d="M81.6931,-112.2455C92.1321,-103.8943 107.3655,-91.7076 119.574,-81.9408"/>
<polygon fill="#191970" stroke="#191970" points="121.8244,-84.6227 127.4467,-75.6427 117.4515,-79.1566 121.8244,-84.6227"/>
</g>
<!-- Node3&#45;&gt;Node2 -->
<g id="edge4" class="edge">
<title>Node3&#45;&gt;Node2</title>
<path fill="none" stroke="#191970" d="M133.4035,-56.2455C128.5855,-48.5367 121.7249,-37.5598 115.8968,-28.2348"/>
<polygon fill="#191970" stroke="#191970" points="118.7947,-26.2677 110.5267,-19.6427 112.8587,-29.9777 118.7947,-26.2677"/>
</g>
</g>
</svg>
