<?xml version="1.0" encoding="UTF-8" standalone="no"?>
<!DOCTYPE svg PUBLIC "-//W3C//DTD SVG 1.1//EN"
 "http://www.w3.org/Graphics/SVG/1.1/DTD/svg11.dtd">
<!-- Generated by graphviz version 2.28.0 (20130622.2148)
 -->
<!-- Title: FCSInterface_p.h Pages: 1 -->
<svg width="187pt" height="140pt"
 viewBox="0.00 0.00 187.00 140.00" xmlns="http://www.w3.org/2000/svg" xmlns:xlink="http://www.w3.org/1999/xlink">
<g id="graph1" class="graph" transform="scale(1 1) rotate(0) translate(4 136)">
<title>FCSInterface_p.h</title>
<!-- Node1 -->
<g id="node1" class="node"><title>Node1</title>
<polygon fill="#bfbfbf" stroke="black" points="21.5,-112.5 21.5,-131.5 114.5,-131.5 114.5,-112.5 21.5,-112.5"/>
<text text-anchor="middle" x="68" y="-119.5" font-family="Helvetica,sans-Serif" font-size="10.00">FCSInterface_p.h</text>
</g>
<!-- Node2 -->
<g id="node3" class="node"><title>Node2</title>
<polygon fill="none" stroke="#bfbfbf" points="0,-56.5 0,-75.5 40,-75.5 40,-56.5 0,-56.5"/>
<text text-anchor="middle" x="20" y="-63.5" font-family="Helvetica,sans-Serif" font-size="10.00">mpi.h</text>
</g>
<!-- Node1&#45;&gt;Node2 -->
<g id="edge2" class="edge"><title>Node1&#45;&gt;Node2</title>
<path fill="none" stroke="midnightblue" d="M60.0738,-112.083C53.1539,-104.298 42.9346,-92.8015 34.548,-83.3665"/>
<polygon fill="midnightblue" stroke="midnightblue" points="37.0383,-80.8999 27.7787,-75.7511 31.8065,-85.5505 37.0383,-80.8999"/>
</g>
<!-- Node3 -->
<g id="node5" class="node"><title>Node3</title>
<polygon fill="none" stroke="#bfbfbf" points="57.5,-0.5 57.5,-19.5 148.5,-19.5 148.5,-0.5 57.5,-0.5"/>
<text text-anchor="middle" x="103" y="-7.5" font-family="Helvetica,sans-Serif" font-size="10.00">FCSDefinitions.h</text>
</g>
<!-- Node1&#45;&gt;Node3 -->
<g id="edge4" class="edge"><title>Node1&#45;&gt;Node3</title>
<path fill="none" stroke="midnightblue" d="M70.6524,-112.148C74.4225,-99.6207 81.5863,-76.0136 88,-56 90.8308,-47.1664 94.0746,-37.3944 96.8198,-29.2199"/>
<polygon fill="midnightblue" stroke="midnightblue" points="100.182,-30.2015 100.065,-19.6073 93.5501,-27.9625 100.182,-30.2015"/>
</g>
<!-- Node4 -->
<g id="node7" class="node"><title>Node4</title>
<a xlink:href="_f_c_s_result__p_8h.html" target="_top" xlink:title="FCSResult_p.h">
<polygon fill="none" stroke="black" points="96.5,-56.5 96.5,-75.5 179.5,-75.5 179.5,-56.5 96.5,-56.5"/>
<text text-anchor="middle" x="138" y="-63.5" font-family="Helvetica,sans-Serif" font-size="10.00">FCSResult_p.h</text>
</a>
</g>
<!-- Node1&#45;&gt;Node4 -->
<g id="edge6" class="edge"><title>Node1&#45;&gt;Node4</title>
<path fill="none" stroke="midnightblue" d="M79.2467,-112.324C89.7974,-104.185 105.801,-91.8395 118.442,-82.0874"/>
<polygon fill="midnightblue" stroke="midnightblue" points="120.769,-84.7132 126.549,-75.8339 116.493,-79.1707 120.769,-84.7132"/>
</g>
<!-- Node4&#45;&gt;Node3 -->
<g id="edge8" class="edge"><title>Node4&#45;&gt;Node3</title>
<path fill="none" stroke="midnightblue" d="M132.22,-56.083C127.328,-48.5341 120.173,-37.4948 114.167,-28.2298"/>
<polygon fill="midnightblue" stroke="midnightblue" points="117.048,-26.239 108.672,-19.7511 111.174,-30.0463 117.048,-26.239"/>
</g>
</g>
</svg>
