<?xml version="1.0" encoding="UTF-8" standalone="no"?>
<!DOCTYPE svg PUBLIC "-//W3C//DTD SVG 1.1//EN"
 "http://www.w3.org/Graphics/SVG/1.1/DTD/svg11.dtd">
<!-- Generated by graphviz version 2.28.0 (20130622.2148)
 -->
<!-- Title: fcs_result_get_message Pages: 1 -->
<svg width="296pt" height="66pt"
 viewBox="0.00 0.00 296.00 66.00" xmlns="http://www.w3.org/2000/svg" xmlns:xlink="http://www.w3.org/1999/xlink">
<g id="graph1" class="graph" transform="scale(1 1) rotate(0) translate(4 62)">
<title>fcs_result_get_message</title>
<!-- Node1 -->
<g id="node1" class="node"><title>Node1</title>
<polygon fill="#bfbfbf" stroke="black" points="0,-19.5 0,-38.5 126,-38.5 126,-19.5 0,-19.5"/>
<text text-anchor="middle" x="63" y="-26.5" font-family="Helvetica,sans-Serif" font-size="10.00">fcs_result_get_message</text>
</g>
<!-- Node2 -->
<g id="node3" class="node"><title>Node2</title>
<a xlink:href="_f_c_s_result__p_8h.html#a337236ed8644ddb31543b829b5870e97" target="_top" xlink:title="function to return the description message associated with an return state ">
<polygon fill="none" stroke="black" points="162,-38.5 162,-57.5 288,-57.5 288,-38.5 162,-38.5"/>
<text text-anchor="middle" x="225" y="-45.5" font-family="Helvetica,sans-Serif" font-size="10.00">fcs_result_get_message</text>
</a>
</g>
<!-- Node1&#45;&gt;Node2 -->
<g id="edge2" class="edge"><title>Node1&#45;&gt;Node2</title>
<path fill="none" stroke="midnightblue" d="M126.318,-36.4003C134.706,-37.3964 143.367,-38.4248 151.907,-39.4389"/>
<polygon fill="midnightblue" stroke="midnightblue" points="151.509,-42.9162 161.852,-40.6199 152.334,-35.965 151.509,-42.9162"/>
</g>
<!-- Node3 -->
<g id="node5" class="node"><title>Node3</title>
<a xlink:href="classfcs__module.html#a09bb1d57d37e3f12d2944c5ddc451dad" target="_top" xlink:title="fcs_get_position_char">
<polygon fill="none" stroke="black" points="168.5,-0.5 168.5,-19.5 281.5,-19.5 281.5,-0.5 168.5,-0.5"/>
<text text-anchor="middle" x="225" y="-7.5" font-family="Helvetica,sans-Serif" font-size="10.00">fcs_get_position_char</text>
</a>
</g>
<!-- Node1&#45;&gt;Node3 -->
<g id="edge4" class="edge"><title>Node1&#45;&gt;Node3</title>
<path fill="none" stroke="midnightblue" d="M126.318,-21.5997C136.824,-20.3521 147.759,-19.0537 158.346,-17.7964"/>
<polygon fill="midnightblue" stroke="midnightblue" points="158.849,-21.2614 168.366,-16.6065 158.023,-14.3102 158.849,-21.2614"/>
</g>
</g>
</svg>
