<?xml version="1.0" encoding="UTF-8" standalone="no"?>
<!DOCTYPE svg PUBLIC "-//W3C//DTD SVG 1.1//EN"
 "http://www.w3.org/Graphics/SVG/1.1/DTD/svg11.dtd">
<!-- Generated by graphviz version 2.28.0 (20130622.2148)
 -->
<!-- Title: fcs_get_position_char Pages: 1 -->
<svg width="284pt" height="66pt"
 viewBox="0.00 0.00 284.00 66.00" xmlns="http://www.w3.org/2000/svg" xmlns:xlink="http://www.w3.org/1999/xlink">
<g id="graph1" class="graph" transform="scale(1 1) rotate(0) translate(4 62)">
<title>fcs_get_position_char</title>
<!-- Node1 -->
<g id="node1" class="node"><title>Node1</title>
<polygon fill="#bfbfbf" stroke="black" points="0.5,-19.5 0.5,-38.5 113.5,-38.5 113.5,-19.5 0.5,-19.5"/>
<text text-anchor="middle" x="57" y="-26.5" font-family="Helvetica,sans-Serif" font-size="10.00">fcs_get_position_char</text>
</g>
<!-- Node2 -->
<g id="node3" class="node"><title>Node2</title>
<a xlink:href="classfcs__module.html#adcde84045365486318732f6f8a9b5f40" target="_top" xlink:title="fcs_result_get_message">
<polygon fill="none" stroke="black" points="150,-38.5 150,-57.5 276,-57.5 276,-38.5 150,-38.5"/>
<text text-anchor="middle" x="213" y="-45.5" font-family="Helvetica,sans-Serif" font-size="10.00">fcs_result_get_message</text>
</a>
</g>
<!-- Node1&#45;&gt;Node2 -->
<g id="edge2" class="edge"><title>Node1&#45;&gt;Node2</title>
<path fill="none" stroke="midnightblue" d="M123.702,-37.1061C132.41,-38.1805 141.315,-39.2791 149.959,-40.3456"/>
<polygon fill="midnightblue" stroke="midnightblue" points="123.951,-33.6103 113.598,-35.8594 123.094,-40.5577 123.951,-33.6103"/>
</g>
<!-- Node3 -->
<g id="node5" class="node"><title>Node3</title>
<a xlink:href="classfcs__module.html#acc628f8b44a7792fcb358d92ebff208a" target="_top" xlink:title="fcs_result_get_function">
<polygon fill="none" stroke="black" points="154.5,-0.5 154.5,-19.5 271.5,-19.5 271.5,-0.5 154.5,-0.5"/>
<text text-anchor="middle" x="213" y="-7.5" font-family="Helvetica,sans-Serif" font-size="10.00">fcs_result_get_function</text>
</a>
</g>
<!-- Node1&#45;&gt;Node3 -->
<g id="edge4" class="edge"><title>Node1&#45;&gt;Node3</title>
<path fill="none" stroke="midnightblue" d="M123.694,-20.8949C133.908,-19.6348 144.393,-18.3411 154.41,-17.1053"/>
<polygon fill="midnightblue" stroke="midnightblue" points="123.094,-17.4423 113.598,-22.1406 123.951,-24.3897 123.094,-17.4423"/>
</g>
</g>
</svg>
