<?xml version="1.0" encoding="UTF-8" standalone="no"?>
<!DOCTYPE svg PUBLIC "-//W3C//DTD SVG 1.1//EN"
 "http://www.w3.org/Graphics/SVG/1.1/DTD/svg11.dtd">
<!-- Generated by graphviz version 2.28.0 (20130622.2148)
 -->
<!-- Title: fcs_result_get_function Pages: 1 -->
<svg width="280pt" height="66pt"
 viewBox="0.00 0.00 280.00 66.00" xmlns="http://www.w3.org/2000/svg" xmlns:xlink="http://www.w3.org/1999/xlink">
<g id="graph1" class="graph" transform="scale(1 1) rotate(0) translate(4 62)">
<title>fcs_result_get_function</title>
<!-- Node1 -->
<g id="node1" class="node"><title>Node1</title>
<polygon fill="#bfbfbf" stroke="black" points="0.5,-19.5 0.5,-38.5 117.5,-38.5 117.5,-19.5 0.5,-19.5"/>
<text text-anchor="middle" x="59" y="-26.5" font-family="Helvetica,sans-Serif" font-size="10.00">fcs_result_get_function</text>
</g>
<!-- Node2 -->
<g id="node3" class="node"><title>Node2</title>
<a xlink:href="_f_c_s_result__p_8h.html#ac5322588b3a6b5605c9c91ecfe566dbd" target="_top" xlink:title="function to return the function name associated with an return state ">
<polygon fill="none" stroke="black" points="154.5,-38.5 154.5,-57.5 271.5,-57.5 271.5,-38.5 154.5,-38.5"/>
<text text-anchor="middle" x="213" y="-45.5" font-family="Helvetica,sans-Serif" font-size="10.00">fcs_result_get_function</text>
</a>
</g>
<!-- Node1&#45;&gt;Node2 -->
<g id="edge2" class="edge"><title>Node1&#45;&gt;Node2</title>
<path fill="none" stroke="midnightblue" d="M117.898,-36.2373C126.461,-37.3076 135.349,-38.4187 144.093,-39.5116"/>
<polygon fill="midnightblue" stroke="midnightblue" points="143.906,-43.0154 154.263,-40.7828 144.774,-36.0694 143.906,-43.0154"/>
</g>
<!-- Node3 -->
<g id="node5" class="node"><title>Node3</title>
<a xlink:href="classfcs__module.html#a09bb1d57d37e3f12d2944c5ddc451dad" target="_top" xlink:title="fcs_get_position_char">
<polygon fill="none" stroke="black" points="156.5,-0.5 156.5,-19.5 269.5,-19.5 269.5,-0.5 156.5,-0.5"/>
<text text-anchor="middle" x="213" y="-7.5" font-family="Helvetica,sans-Serif" font-size="10.00">fcs_get_position_char</text>
</a>
</g>
<!-- Node1&#45;&gt;Node3 -->
<g id="edge4" class="edge"><title>Node1&#45;&gt;Node3</title>
<path fill="none" stroke="midnightblue" d="M117.898,-21.7627C127.14,-20.6075 136.761,-19.4049 146.17,-18.2287"/>
<polygon fill="midnightblue" stroke="midnightblue" points="146.78,-21.6798 156.269,-16.9664 145.912,-14.7338 146.78,-21.6798"/>
</g>
</g>
</svg>
