<?xml version="1.0" encoding="UTF-8" standalone="no"?>
<!DOCTYPE svg PUBLIC "-//W3C//DTD SVG 1.1//EN"
 "http://www.w3.org/Graphics/SVG/1.1/DTD/svg11.dtd">
<!-- Generated by graphviz version 2.40.1 (20161225.0304)
 -->
<!-- Title: fcs_mmm1d_p.h Pages: 1 -->
<svg width="197pt" height="196pt"
 viewBox="0.00 0.00 197.47 196.00" xmlns="http://www.w3.org/2000/svg" xmlns:xlink="http://www.w3.org/1999/xlink">
<g id="graph0" class="graph" transform="scale(1 1) rotate(0) translate(4 192)">
<title>fcs_mmm1d_p.h</title>
<!-- Node0 -->
<g id="node1" class="node">
<title>Node0</title>
<polygon fill="#bfbfbf" stroke="#000000" points="1.4693,-168.5 1.4693,-187.5 90.4693,-187.5 90.4693,-168.5 1.4693,-168.5"/>
<text text-anchor="middle" x="45.9693" y="-175.5" font-family="Helvetica,sans-Serif" font-size="10.00" fill="#000000">fcs_mmm1d_p.h</text>
</g>
<!-- Node1 -->
<g id="node2" class="node">
<title>Node1</title>
<polygon fill="none" stroke="#bfbfbf" points="8.9693,-.5 8.9693,-19.5 96.9693,-19.5 96.9693,-.5 8.9693,-.5"/>
<text text-anchor="middle" x="52.9693" y="-7.5" font-family="Helvetica,sans-Serif" font-size="10.00" fill="#000000">fcs_definitions.h</text>
</g>
<!-- Node0&#45;&gt;Node1 -->
<g id="edge1" class="edge">
<title>Node0&#45;&gt;Node1</title>
<path fill="none" stroke="#191970" d="M37.9353,-168.3169C21.6274,-147.4197 -12.3953,-96.6922 4.9693,-56 10.0849,-44.0122 20.0269,-33.6498 29.542,-25.8114"/>
<polygon fill="#191970" stroke="#191970" points="31.849,-28.4532 37.662,-19.5954 27.594,-22.8949 31.849,-28.4532"/>
</g>
<!-- Node2 -->
<g id="node3" class="node">
<title>Node2</title>
<g id="a_node3"><a xlink:href="fcs__result__p_8h.html" target="_top" xlink:title="public interface definitions for the FCSResult&#45;object that is used for handling the return state of t...">
<polygon fill="none" stroke="#000000" points="13.9693,-56.5 13.9693,-75.5 91.9693,-75.5 91.9693,-56.5 13.9693,-56.5"/>
<text text-anchor="middle" x="52.9693" y="-63.5" font-family="Helvetica,sans-Serif" font-size="10.00" fill="#000000">fcs_result_p.h</text>
</a>
</g>
</g>
<!-- Node0&#45;&gt;Node2 -->
<g id="edge2" class="edge">
<title>Node0&#45;&gt;Node2</title>
<path fill="none" stroke="#191970" d="M46.5662,-168.4509C47.7078,-150.184 50.2221,-109.9553 51.7382,-85.6976"/>
<polygon fill="#191970" stroke="#191970" points="55.2433,-85.7238 52.374,-75.5249 48.257,-85.2871 55.2433,-85.7238"/>
</g>
<!-- Node3 -->
<g id="node4" class="node">
<title>Node3</title>
<g id="a_node4"><a xlink:href="fcs__interface__p_8h.html" target="_top" xlink:title="public interface definitions for the main solver&#45;independent functionality of the ScaFaCoS library ...">
<polygon fill="none" stroke="#000000" points="73.9693,-112.5 73.9693,-131.5 165.9693,-131.5 165.9693,-112.5 73.9693,-112.5"/>
<text text-anchor="middle" x="119.9693" y="-119.5" font-family="Helvetica,sans-Serif" font-size="10.00" fill="#000000">fcs_interface_p.h</text>
</a>
</g>
</g>
<!-- Node0&#45;&gt;Node3 -->
<g id="edge4" class="edge">
<title>Node0&#45;&gt;Node3</title>
<path fill="none" stroke="#191970" d="M58.8592,-168.2455C69.8947,-159.8943 85.9985,-147.7076 98.9047,-137.9408"/>
<polygon fill="#191970" stroke="#191970" points="101.3652,-140.4681 107.2272,-131.6427 97.1411,-134.8862 101.3652,-140.4681"/>
</g>
<!-- Node2&#45;&gt;Node1 -->
<g id="edge3" class="edge">
<title>Node2&#45;&gt;Node1</title>
<path fill="none" stroke="#191970" d="M52.9693,-56.2455C52.9693,-48.9382 52.9693,-38.6944 52.9693,-29.7046"/>
<polygon fill="#191970" stroke="#191970" points="56.4694,-29.6426 52.9693,-19.6427 49.4694,-29.6427 56.4694,-29.6426"/>
</g>
<!-- Node3&#45;&gt;Node1 -->
<g id="edge6" class="edge">
<title>Node3&#45;&gt;Node1</title>
<path fill="none" stroke="#191970" d="M118.8093,-112.4118C116.8433,-98.9782 111.9448,-74.166 100.9693,-56 94.0447,-44.5387 83.5382,-34.0182 74.1186,-25.9397"/>
<polygon fill="#191970" stroke="#191970" points="76.1979,-23.119 66.2378,-19.5068 71.7713,-28.5418 76.1979,-23.119"/>
</g>
<!-- Node3&#45;&gt;Node2 -->
<g id="edge7" class="edge">
<title>Node3&#45;&gt;Node2</title>
<path fill="none" stroke="#191970" d="M108.2988,-112.2455C98.4033,-103.9746 84.0066,-91.9416 72.3793,-82.2232"/>
<polygon fill="#191970" stroke="#191970" points="74.4235,-79.3703 64.5061,-75.6427 69.9343,-84.7413 74.4235,-79.3703"/>
</g>
<!-- Node4 -->
<g id="node5" class="node">
<title>Node4</title>
<polygon fill="none" stroke="#bfbfbf" points="148.4693,-56.5 148.4693,-75.5 189.4693,-75.5 189.4693,-56.5 148.4693,-56.5"/>
<text text-anchor="middle" x="168.9693" y="-63.5" font-family="Helvetica,sans-Serif" font-size="10.00" fill="#000000">mpi.h</text>
</g>
<!-- Node3&#45;&gt;Node4 -->
<g id="edge5" class="edge">
<title>Node3&#45;&gt;Node4</title>
<path fill="none" stroke="#191970" d="M128.5045,-112.2455C135.4605,-104.2958 145.4576,-92.8706 153.7745,-83.3656"/>
<polygon fill="#191970" stroke="#191970" points="156.5809,-85.4732 160.532,-75.6427 151.3129,-80.8637 156.5809,-85.4732"/>
</g>
</g>
</svg>
