<?xml version="1.0" encoding="UTF-8" standalone="no"?>
<!DOCTYPE svg PUBLIC "-//W3C//DTD SVG 1.1//EN"
 "http://www.w3.org/Graphics/SVG/1.1/DTD/svg11.dtd">
<!-- Generated by graphviz version 2.40.1 (20161225.0304)
 -->
<!-- Title: fcs_ewald_p.h Pages: 1 -->
<svg width="204pt" height="196pt"
 viewBox="0.00 0.00 203.55 196.00" xmlns="http://www.w3.org/2000/svg" xmlns:xlink="http://www.w3.org/1999/xlink">
<g id="graph0" class="graph" transform="scale(1 1) rotate(0) translate(4 192)">
<title>fcs_ewald_p.h</title>
<!-- Node0 -->
<g id="node1" class="node">
<title>Node0</title>
<polygon fill="#bfbfbf" stroke="#000000" points="11.0493,-168.5 11.0493,-187.5 91.0493,-187.5 91.0493,-168.5 11.0493,-168.5"/>
<text text-anchor="middle" x="51.0493" y="-175.5" font-family="Helvetica,sans-Serif" font-size="10.00" fill="#000000">fcs_ewald_p.h</text>
</g>
<!-- Node1 -->
<g id="node2" class="node">
<title>Node1</title>
<polygon fill="none" stroke="#bfbfbf" points="10.0493,-.5 10.0493,-19.5 102.0493,-19.5 102.0493,-.5 10.0493,-.5"/>
<text text-anchor="middle" x="56.0493" y="-7.5" font-family="Helvetica,sans-Serif" font-size="10.00" fill="#000000">FCSDefinitions.h</text>
</g>
<!-- Node0&#45;&gt;Node1 -->
<g id="edge1" class="edge">
<title>Node0&#45;&gt;Node1</title>
<path fill="none" stroke="#191970" d="M42.2311,-168.357C24.3144,-147.5377 -13.1629,-96.9525 5.0493,-56 10.5,-43.7432 21.0092,-33.3755 31.0782,-25.6036"/>
<polygon fill="#191970" stroke="#191970" points="33.2236,-28.3721 39.3119,-19.7012 29.1453,-22.6828 33.2236,-28.3721"/>
</g>
<!-- Node2 -->
<g id="node3" class="node">
<title>Node2</title>
<g id="a_node3"><a xlink:href="_f_c_s_result__p_8h.html" target="_top" xlink:title="public interface definitions for the FCSResult&#45;object that is used for handling the return state of t...">
<polygon fill="none" stroke="#000000" points="14.0493,-56.5 14.0493,-75.5 98.0493,-75.5 98.0493,-56.5 14.0493,-56.5"/>
<text text-anchor="middle" x="56.0493" y="-63.5" font-family="Helvetica,sans-Serif" font-size="10.00" fill="#000000">FCSResult_p.h</text>
</a>
</g>
</g>
<!-- Node0&#45;&gt;Node2 -->
<g id="edge2" class="edge">
<title>Node0&#45;&gt;Node2</title>
<path fill="none" stroke="#191970" d="M51.4756,-168.4509C52.2911,-150.184 54.087,-109.9553 55.1699,-85.6976"/>
<polygon fill="#191970" stroke="#191970" points="58.6745,-85.6711 55.6241,-75.5249 51.6815,-85.3588 58.6745,-85.6711"/>
</g>
<!-- Node3 -->
<g id="node4" class="node">
<title>Node3</title>
<g id="a_node4"><a xlink:href="_f_c_s_interface__p_8h.html" target="_top" xlink:title="public interface definitions for the main solver&#45;independent functionality of the ScaFaCoS library ...">
<polygon fill="none" stroke="#000000" points="79.0493,-112.5 79.0493,-131.5 173.0493,-131.5 173.0493,-112.5 79.0493,-112.5"/>
<text text-anchor="middle" x="126.0493" y="-119.5" font-family="Helvetica,sans-Serif" font-size="10.00" fill="#000000">FCSInterface_p.h</text>
</a>
</g>
</g>
<!-- Node0&#45;&gt;Node3 -->
<g id="edge4" class="edge">
<title>Node0&#45;&gt;Node3</title>
<path fill="none" stroke="#191970" d="M64.1133,-168.2455C75.4055,-159.814 91.9338,-147.4729 105.0764,-137.6598"/>
<polygon fill="#191970" stroke="#191970" points="107.2162,-140.4301 113.135,-131.6427 103.0281,-134.8211 107.2162,-140.4301"/>
</g>
<!-- Node2&#45;&gt;Node1 -->
<g id="edge3" class="edge">
<title>Node2&#45;&gt;Node1</title>
<path fill="none" stroke="#191970" d="M56.0493,-56.2455C56.0493,-48.9382 56.0493,-38.6944 56.0493,-29.7046"/>
<polygon fill="#191970" stroke="#191970" points="59.5494,-29.6426 56.0493,-19.6427 52.5494,-29.6427 59.5494,-29.6426"/>
</g>
<!-- Node3&#45;&gt;Node1 -->
<g id="edge6" class="edge">
<title>Node3&#45;&gt;Node1</title>
<path fill="none" stroke="#191970" d="M124.9654,-112.365C123.0897,-98.8759 118.2981,-73.998 107.0493,-56 99.7423,-44.3089 88.632,-33.7947 78.6447,-25.7793"/>
<polygon fill="#191970" stroke="#191970" points="80.701,-22.9458 70.6275,-19.6631 76.4552,-28.5112 80.701,-22.9458"/>
</g>
<!-- Node3&#45;&gt;Node2 -->
<g id="edge7" class="edge">
<title>Node3&#45;&gt;Node2</title>
<path fill="none" stroke="#191970" d="M113.8562,-112.2455C103.4172,-103.8943 88.1838,-91.7076 75.9753,-81.9408"/>
<polygon fill="#191970" stroke="#191970" points="78.0978,-79.1566 68.1026,-75.6427 73.7249,-84.6227 78.0978,-79.1566"/>
</g>
<!-- Node4 -->
<g id="node5" class="node">
<title>Node4</title>
<polygon fill="none" stroke="#bfbfbf" points="154.5493,-56.5 154.5493,-75.5 195.5493,-75.5 195.5493,-56.5 154.5493,-56.5"/>
<text text-anchor="middle" x="175.0493" y="-63.5" font-family="Helvetica,sans-Serif" font-size="10.00" fill="#000000">mpi.h</text>
</g>
<!-- Node3&#45;&gt;Node4 -->
<g id="edge5" class="edge">
<title>Node3&#45;&gt;Node4</title>
<path fill="none" stroke="#191970" d="M134.5844,-112.2455C141.5404,-104.2958 151.5376,-92.8706 159.8544,-83.3656"/>
<polygon fill="#191970" stroke="#191970" points="162.6609,-85.4732 166.6119,-75.6427 157.3928,-80.8637 162.6609,-85.4732"/>
</g>
</g>
</svg>
