<?xml version="1.0" encoding="UTF-8" standalone="no"?>
<!DOCTYPE svg PUBLIC "-//W3C//DTD SVG 1.1//EN"
 "http://www.w3.org/Graphics/SVG/1.1/DTD/svg11.dtd">
<!-- Generated by graphviz version 2.40.1 (20161225.0304)
 -->
<!-- Title: fcs_interface_p.h Pages: 1 -->
<svg width="184pt" height="140pt"
 viewBox="0.00 0.00 183.50 140.00" xmlns="http://www.w3.org/2000/svg" xmlns:xlink="http://www.w3.org/1999/xlink">
<g id="graph0" class="graph" transform="scale(1 1) rotate(0) translate(4 136)">
<title>fcs_interface_p.h</title>
<!-- Node0 -->
<g id="node1" class="node">
<title>Node0</title>
<polygon fill="#bfbfbf" stroke="#000000" points="23.5,-112.5 23.5,-131.5 115.5,-131.5 115.5,-112.5 23.5,-112.5"/>
<text text-anchor="middle" x="69.5" y="-119.5" font-family="Helvetica,sans-Serif" font-size="10.00" fill="#000000">fcs_interface_p.h</text>
</g>
<!-- Node1 -->
<g id="node2" class="node">
<title>Node1</title>
<polygon fill="none" stroke="#bfbfbf" points="0,-56.5 0,-75.5 41,-75.5 41,-56.5 0,-56.5"/>
<text text-anchor="middle" x="20.5" y="-63.5" font-family="Helvetica,sans-Serif" font-size="10.00" fill="#000000">mpi.h</text>
</g>
<!-- Node0&#45;&gt;Node1 -->
<g id="edge1" class="edge">
<title>Node0&#45;&gt;Node1</title>
<path fill="none" stroke="#191970" d="M60.9649,-112.2455C54.0088,-104.2958 44.0117,-92.8706 35.6949,-83.3656"/>
<polygon fill="#191970" stroke="#191970" points="38.1564,-80.8637 28.9373,-75.6427 32.8884,-85.4732 38.1564,-80.8637"/>
</g>
<!-- Node2 -->
<g id="node3" class="node">
<title>Node2</title>
<polygon fill="none" stroke="#bfbfbf" points="58.5,-.5 58.5,-19.5 146.5,-19.5 146.5,-.5 58.5,-.5"/>
<text text-anchor="middle" x="102.5" y="-7.5" font-family="Helvetica,sans-Serif" font-size="10.00" fill="#000000">fcs_definitions.h</text>
</g>
<!-- Node0&#45;&gt;Node2 -->
<g id="edge2" class="edge">
<title>Node0&#45;&gt;Node2</title>
<path fill="none" stroke="#191970" d="M72.2863,-112.1465C75.949,-99.2346 82.6096,-75.8935 88.5,-56 91.1037,-47.2065 94.0509,-37.489 96.5674,-29.2598"/>
<polygon fill="#191970" stroke="#191970" points="99.974,-30.089 99.5622,-19.5021 93.282,-28.0351 99.974,-30.089"/>
</g>
<!-- Node3 -->
<g id="node4" class="node">
<title>Node3</title>
<g id="a_node4"><a xlink:href="fcs__result__p_8h.html" target="_top" xlink:title="public interface definitions for the FCSResult&#45;object that is used for handling the return state of t...">
<polygon fill="none" stroke="#000000" points="97.5,-56.5 97.5,-75.5 175.5,-75.5 175.5,-56.5 97.5,-56.5"/>
<text text-anchor="middle" x="136.5" y="-63.5" font-family="Helvetica,sans-Serif" font-size="10.00" fill="#000000">fcs_result_p.h</text>
</a>
</g>
</g>
<!-- Node0&#45;&gt;Node3 -->
<g id="edge3" class="edge">
<title>Node0&#45;&gt;Node3</title>
<path fill="none" stroke="#191970" d="M81.1705,-112.2455C91.0661,-103.9746 105.4627,-91.9416 117.0901,-82.2232"/>
<polygon fill="#191970" stroke="#191970" points="119.535,-84.7413 124.9632,-75.6427 115.0458,-79.3703 119.535,-84.7413"/>
</g>
<!-- Node3&#45;&gt;Node2 -->
<g id="edge4" class="edge">
<title>Node3&#45;&gt;Node2</title>
<path fill="none" stroke="#191970" d="M130.5777,-56.2455C125.8973,-48.5367 119.2327,-37.5598 113.5711,-28.2348"/>
<polygon fill="#191970" stroke="#191970" points="116.5361,-26.3741 108.3545,-19.6427 110.5525,-30.007 116.5361,-26.3741"/>
</g>
</g>
</svg>
