<?xml version="1.0" encoding="UTF-8" standalone="no"?>
<!DOCTYPE svg PUBLIC "-//W3C//DTD SVG 1.1//EN"
 "http://www.w3.org/Graphics/SVG/1.1/DTD/svg11.dtd">
<!-- Generated by graphviz version 2.28.0 (20130622.2148)
 -->
<!-- Title: fcs_p3m_p.h Pages: 1 -->
<svg width="243pt" height="196pt"
 viewBox="0.00 0.00 242.58 196.00" xmlns="http://www.w3.org/2000/svg" xmlns:xlink="http://www.w3.org/1999/xlink">
<g id="graph1" class="graph" transform="scale(1 1) rotate(0) translate(4 192)">
<title>fcs_p3m_p.h</title>
<!-- Node1 -->
<g id="node1" class="node"><title>Node1</title>
<polygon fill="#bfbfbf" stroke="black" points="50.0774,-168.5 50.0774,-187.5 121.077,-187.5 121.077,-168.5 50.0774,-168.5"/>
<text text-anchor="middle" x="85.5774" y="-175.5" font-family="Helvetica,sans-Serif" font-size="10.00">fcs_p3m_p.h</text>
</g>
<!-- Node2 -->
<g id="node3" class="node"><title>Node2</title>
<polygon fill="none" stroke="#bfbfbf" points="8.07745,-0.5 8.07745,-19.5 99.0774,-19.5 99.0774,-0.5 8.07745,-0.5"/>
<text text-anchor="middle" x="53.5774" y="-7.5" font-family="Helvetica,sans-Serif" font-size="10.00">FCSDefinitions.h</text>
</g>
<!-- Node1&#45;&gt;Node2 -->
<g id="edge2" class="edge"><title>Node1&#45;&gt;Node2</title>
<path fill="none" stroke="midnightblue" d="M74.7712,-168.417C55.795,-152.568 17.1183,-116.597 2.57745,-76 -0.419884,-67.6317 -1.07878,-64.1021 2.57745,-56 8.19334,-43.5553 19.1401,-33.1723 29.4567,-25.5273"/>
<polygon fill="midnightblue" stroke="midnightblue" points="31.5839,-28.3123 37.8435,-19.7643 27.6195,-22.5431 31.5839,-28.3123"/>
</g>
<!-- Node3 -->
<g id="node5" class="node"><title>Node3</title>
<a xlink:href="_f_c_s_result__p_8h.html" target="_top" xlink:title="FCSResult_p.h">
<polygon fill="none" stroke="black" points="12.0774,-56.5 12.0774,-75.5 95.0774,-75.5 95.0774,-56.5 12.0774,-56.5"/>
<text text-anchor="middle" x="53.5774" y="-63.5" font-family="Helvetica,sans-Serif" font-size="10.00">FCSResult_p.h</text>
</a>
</g>
<!-- Node1&#45;&gt;Node3 -->
<g id="edge4" class="edge"><title>Node1&#45;&gt;Node3</title>
<path fill="none" stroke="midnightblue" d="M81.5406,-168.194C77.5572,-159.235 71.5087,-144.876 67.5774,-132 62.8847,-116.63 59.1556,-98.7535 56.7299,-85.6426"/>
<polygon fill="midnightblue" stroke="midnightblue" points="60.1297,-84.7684 54.9422,-75.5304 53.2365,-85.987 60.1297,-84.7684"/>
</g>
<!-- Node4 -->
<g id="node8" class="node"><title>Node4</title>
<a xlink:href="_f_c_s_interface__p_8h.html" target="_top" xlink:title="supplying the C&#45;interface routine for the ScaFaCoS library ">
<polygon fill="none" stroke="black" points="77.0774,-112.5 77.0774,-131.5 170.077,-131.5 170.077,-112.5 77.0774,-112.5"/>
<text text-anchor="middle" x="123.577" y="-119.5" font-family="Helvetica,sans-Serif" font-size="10.00">FCSInterface_p.h</text>
</a>
</g>
<!-- Node1&#45;&gt;Node4 -->
<g id="edge8" class="edge"><title>Node1&#45;&gt;Node4</title>
<path fill="none" stroke="midnightblue" d="M91.8524,-168.083C97.2199,-160.455 105.095,-149.264 111.656,-139.941"/>
<polygon fill="midnightblue" stroke="midnightblue" points="114.527,-141.943 117.419,-131.751 108.802,-137.915 114.527,-141.943"/>
</g>
<!-- Node6 -->
<g id="node14" class="node"><title>Node6</title>
<polygon fill="none" stroke="#bfbfbf" points="188.577,-112.5 188.577,-131.5 234.577,-131.5 234.577,-112.5 188.577,-112.5"/>
<text text-anchor="middle" x="211.577" y="-119.5" font-family="Helvetica,sans-Serif" font-size="10.00">math.h</text>
</g>
<!-- Node1&#45;&gt;Node6 -->
<g id="edge16" class="edge"><title>Node1&#45;&gt;Node6</title>
<path fill="none" stroke="midnightblue" d="M105.543,-168.444C126.187,-159.596 158.64,-145.687 182.209,-135.586"/>
<polygon fill="midnightblue" stroke="midnightblue" points="183.893,-138.673 191.706,-131.516 181.136,-132.239 183.893,-138.673"/>
</g>
<!-- Node3&#45;&gt;Node2 -->
<g id="edge6" class="edge"><title>Node3&#45;&gt;Node2</title>
<path fill="none" stroke="midnightblue" d="M53.5774,-56.083C53.5774,-49.0059 53.5774,-38.8611 53.5774,-29.9865"/>
<polygon fill="midnightblue" stroke="midnightblue" points="57.0775,-29.751 53.5774,-19.7511 50.0775,-29.7511 57.0775,-29.751"/>
</g>
<!-- Node4&#45;&gt;Node2 -->
<g id="edge12" class="edge"><title>Node4&#45;&gt;Node2</title>
<path fill="none" stroke="midnightblue" d="M122.429,-112.386C120.372,-99.3238 115.141,-74.1115 103.577,-56 96.0161,-44.1574 84.5183,-33.5069 74.4543,-25.5437"/>
<polygon fill="midnightblue" stroke="midnightblue" points="76.5491,-22.7398 66.4555,-19.5194 72.3378,-28.3313 76.5491,-22.7398"/>
</g>
<!-- Node4&#45;&gt;Node3 -->
<g id="edge14" class="edge"><title>Node4&#45;&gt;Node3</title>
<path fill="none" stroke="midnightblue" d="M112.331,-112.324C101.78,-104.185 85.7768,-91.8395 73.1352,-82.0874"/>
<polygon fill="midnightblue" stroke="midnightblue" points="75.0845,-79.1707 65.0288,-75.8339 70.8088,-84.7132 75.0845,-79.1707"/>
</g>
<!-- Node5 -->
<g id="node10" class="node"><title>Node5</title>
<polygon fill="none" stroke="#bfbfbf" points="151.577,-56.5 151.577,-75.5 191.577,-75.5 191.577,-56.5 151.577,-56.5"/>
<text text-anchor="middle" x="171.577" y="-63.5" font-family="Helvetica,sans-Serif" font-size="10.00">mpi.h</text>
</g>
<!-- Node4&#45;&gt;Node5 -->
<g id="edge10" class="edge"><title>Node4&#45;&gt;Node5</title>
<path fill="none" stroke="midnightblue" d="M131.504,-112.083C138.424,-104.298 148.643,-92.8015 157.029,-83.3665"/>
<polygon fill="midnightblue" stroke="midnightblue" points="159.771,-85.5505 163.799,-75.7511 154.539,-80.8999 159.771,-85.5505"/>
</g>
</g>
</svg>
