<?xml version="1.0" encoding="UTF-8" standalone="no"?>
<!DOCTYPE svg PUBLIC "-//W3C//DTD SVG 1.1//EN"
 "http://www.w3.org/Graphics/SVG/1.1/DTD/svg11.dtd">
<!-- Generated by graphviz version 2.28.0 (20130622.2148)
 -->
<!-- Title: fcs_fmm_p.h Pages: 1 -->
<svg width="202pt" height="196pt"
 viewBox="0.00 0.00 202.10 196.00" xmlns="http://www.w3.org/2000/svg" xmlns:xlink="http://www.w3.org/1999/xlink">
<g id="graph1" class="graph" transform="scale(1 1) rotate(0) translate(4 192)">
<title>fcs_fmm_p.h</title>
<!-- Node1 -->
<g id="node1" class="node"><title>Node1</title>
<polygon fill="#bfbfbf" stroke="black" points="15.6035,-168.5 15.6035,-187.5 86.6035,-187.5 86.6035,-168.5 15.6035,-168.5"/>
<text text-anchor="middle" x="51.1035" y="-175.5" font-family="Helvetica,sans-Serif" font-size="10.00">fcs_fmm_p.h</text>
</g>
<!-- Node2 -->
<g id="node3" class="node"><title>Node2</title>
<polygon fill="none" stroke="#bfbfbf" points="10.6035,-0.5 10.6035,-19.5 101.604,-19.5 101.604,-0.5 10.6035,-0.5"/>
<text text-anchor="middle" x="56.1035" y="-7.5" font-family="Helvetica,sans-Serif" font-size="10.00">FCSDefinitions.h</text>
</g>
<!-- Node1&#45;&gt;Node2 -->
<g id="edge2" class="edge"><title>Node1&#45;&gt;Node2</title>
<path fill="none" stroke="midnightblue" d="M43.0732,-168.346C25.4773,-148.285 -13.477,-97.174 5.10353,-56 10.7194,-43.5553 21.6662,-33.1723 31.9827,-25.5273"/>
<polygon fill="midnightblue" stroke="midnightblue" points="34.11,-28.3123 40.3696,-19.7643 30.1456,-22.5431 34.11,-28.3123"/>
</g>
<!-- Node3 -->
<g id="node5" class="node"><title>Node3</title>
<a xlink:href="_f_c_s_result__p_8h.html" target="_top" xlink:title="FCSResult_p.h">
<polygon fill="none" stroke="black" points="14.6035,-56.5 14.6035,-75.5 97.6035,-75.5 97.6035,-56.5 14.6035,-56.5"/>
<text text-anchor="middle" x="56.1035" y="-63.5" font-family="Helvetica,sans-Serif" font-size="10.00">FCSResult_p.h</text>
</a>
</g>
<!-- Node1&#45;&gt;Node3 -->
<g id="edge4" class="edge"><title>Node1&#45;&gt;Node3</title>
<path fill="none" stroke="midnightblue" d="M51.4959,-168.368C52.3028,-150.617 54.1641,-109.666 55.2582,-85.5974"/>
<polygon fill="midnightblue" stroke="midnightblue" points="58.7552,-85.7401 55.713,-75.5914 51.7624,-85.4221 58.7552,-85.7401"/>
</g>
<!-- Node4 -->
<g id="node8" class="node"><title>Node4</title>
<a xlink:href="_f_c_s_interface__p_8h.html" target="_top" xlink:title="supplying the C&#45;interface routine for the ScaFaCoS library ">
<polygon fill="none" stroke="black" points="79.6035,-112.5 79.6035,-131.5 172.604,-131.5 172.604,-112.5 79.6035,-112.5"/>
<text text-anchor="middle" x="126.104" y="-119.5" font-family="Helvetica,sans-Serif" font-size="10.00">FCSInterface_p.h</text>
</a>
</g>
<!-- Node1&#45;&gt;Node4 -->
<g id="edge8" class="edge"><title>Node1&#45;&gt;Node4</title>
<path fill="none" stroke="midnightblue" d="M63.1536,-168.324C74.5666,-160.107 91.9345,-147.602 105.538,-137.807"/>
<polygon fill="midnightblue" stroke="midnightblue" points="107.764,-140.517 113.834,-131.834 103.674,-134.837 107.764,-140.517"/>
</g>
<!-- Node3&#45;&gt;Node2 -->
<g id="edge6" class="edge"><title>Node3&#45;&gt;Node2</title>
<path fill="none" stroke="midnightblue" d="M56.1035,-56.083C56.1035,-49.0059 56.1035,-38.8611 56.1035,-29.9865"/>
<polygon fill="midnightblue" stroke="midnightblue" points="59.6036,-29.751 56.1035,-19.7511 52.6036,-29.7511 59.6036,-29.751"/>
</g>
<!-- Node4&#45;&gt;Node2 -->
<g id="edge12" class="edge"><title>Node4&#45;&gt;Node2</title>
<path fill="none" stroke="midnightblue" d="M124.955,-112.386C122.898,-99.3238 117.668,-74.1115 106.104,-56 98.5422,-44.1574 87.0444,-33.5069 76.9803,-25.5437"/>
<polygon fill="midnightblue" stroke="midnightblue" points="79.0752,-22.7398 68.9816,-19.5194 74.8639,-28.3313 79.0752,-22.7398"/>
</g>
<!-- Node4&#45;&gt;Node3 -->
<g id="edge14" class="edge"><title>Node4&#45;&gt;Node3</title>
<path fill="none" stroke="midnightblue" d="M114.857,-112.324C104.306,-104.185 88.3029,-91.8395 75.6613,-82.0874"/>
<polygon fill="midnightblue" stroke="midnightblue" points="77.6105,-79.1707 67.5549,-75.8339 73.3349,-84.7132 77.6105,-79.1707"/>
</g>
<!-- Node5 -->
<g id="node10" class="node"><title>Node5</title>
<polygon fill="none" stroke="#bfbfbf" points="154.104,-56.5 154.104,-75.5 194.104,-75.5 194.104,-56.5 154.104,-56.5"/>
<text text-anchor="middle" x="174.104" y="-63.5" font-family="Helvetica,sans-Serif" font-size="10.00">mpi.h</text>
</g>
<!-- Node4&#45;&gt;Node5 -->
<g id="edge10" class="edge"><title>Node4&#45;&gt;Node5</title>
<path fill="none" stroke="midnightblue" d="M134.03,-112.083C140.95,-104.298 151.169,-92.8015 159.556,-83.3665"/>
<polygon fill="midnightblue" stroke="midnightblue" points="162.297,-85.5505 166.325,-75.7511 157.065,-80.8999 162.297,-85.5505"/>
</g>
</g>
</svg>
