<?xml version="1.0" encoding="UTF-8" standalone="no"?>
<!DOCTYPE svg PUBLIC "-//W3C//DTD SVG 1.1//EN"
 "http://www.w3.org/Graphics/SVG/1.1/DTD/svg11.dtd">
<!-- Generated by graphviz version 2.40.1 (20161225.0304)
 -->
<!-- Title: fcs_p3m_p.h Pages: 1 -->
<svg width="244pt" height="196pt"
 viewBox="0.00 0.00 244.05 196.00" xmlns="http://www.w3.org/2000/svg" xmlns:xlink="http://www.w3.org/1999/xlink">
<g id="graph0" class="graph" transform="scale(1 1) rotate(0) translate(4 192)">
<title>fcs_p3m_p.h</title>
<!-- Node0 -->
<g id="node1" class="node">
<title>Node0</title>
<polygon fill="#bfbfbf" stroke="#000000" points="49.0503,-168.5 49.0503,-187.5 122.0503,-187.5 122.0503,-168.5 49.0503,-168.5"/>
<text text-anchor="middle" x="85.5503" y="-175.5" font-family="Helvetica,sans-Serif" font-size="10.00" fill="#000000">fcs_p3m_p.h</text>
</g>
<!-- Node1 -->
<g id="node2" class="node">
<title>Node1</title>
<polygon fill="none" stroke="#bfbfbf" points="7.5503,-.5 7.5503,-19.5 99.5503,-19.5 99.5503,-.5 7.5503,-.5"/>
<text text-anchor="middle" x="53.5503" y="-7.5" font-family="Helvetica,sans-Serif" font-size="10.00" fill="#000000">FCSDefinitions.h</text>
</g>
<!-- Node0&#45;&gt;Node1 -->
<g id="edge1" class="edge">
<title>Node0&#45;&gt;Node1</title>
<path fill="none" stroke="#191970" d="M73.5169,-168.2665C54.1433,-151.7266 16.7727,-116.0119 2.5503,-76 -.4269,-67.6245 -1.0617,-64.122 2.5503,-56 8.001,-43.7432 18.5101,-33.3755 28.5792,-25.6036"/>
<polygon fill="#191970" stroke="#191970" points="30.7246,-28.3721 36.8129,-19.7012 26.6463,-22.6828 30.7246,-28.3721"/>
</g>
<!-- Node2 -->
<g id="node3" class="node">
<title>Node2</title>
<g id="a_node3"><a xlink:href="_f_c_s_result__p_8h.html" target="_top" xlink:title="public interface definitions for the FCSResult&#45;object that is used for handling the return state of t...">
<polygon fill="none" stroke="#000000" points="11.5503,-56.5 11.5503,-75.5 95.5503,-75.5 95.5503,-56.5 11.5503,-56.5"/>
<text text-anchor="middle" x="53.5503" y="-63.5" font-family="Helvetica,sans-Serif" font-size="10.00" fill="#000000">FCSResult_p.h</text>
</a>
</g>
</g>
<!-- Node0&#45;&gt;Node2 -->
<g id="edge2" class="edge">
<title>Node0&#45;&gt;Node2</title>
<path fill="none" stroke="#191970" d="M81.2134,-168.2931C77.2331,-159.0938 71.3887,-144.8157 67.5503,-132 62.9293,-116.5714 59.2334,-98.6764 56.802,-85.4154"/>
<polygon fill="#191970" stroke="#191970" points="60.2416,-84.7657 55.0645,-75.5219 53.3471,-85.9766 60.2416,-84.7657"/>
</g>
<!-- Node3 -->
<g id="node4" class="node">
<title>Node3</title>
<g id="a_node4"><a xlink:href="_f_c_s_interface__p_8h.html" target="_top" xlink:title="public interface definitions for the main solver&#45;independent functionality of the ScaFaCoS library ...">
<polygon fill="none" stroke="#000000" points="76.5503,-112.5 76.5503,-131.5 170.5503,-131.5 170.5503,-112.5 76.5503,-112.5"/>
<text text-anchor="middle" x="123.5503" y="-119.5" font-family="Helvetica,sans-Serif" font-size="10.00" fill="#000000">FCSInterface_p.h</text>
</a>
</g>
</g>
<!-- Node0&#45;&gt;Node3 -->
<g id="edge4" class="edge">
<title>Node0&#45;&gt;Node3</title>
<path fill="none" stroke="#191970" d="M92.1694,-168.2455C97.4548,-160.4564 105.0044,-149.3308 111.374,-139.9439"/>
<polygon fill="#191970" stroke="#191970" points="114.2881,-141.8827 117.007,-131.6427 108.4958,-137.9522 114.2881,-141.8827"/>
</g>
<!-- Node5 -->
<g id="node6" class="node">
<title>Node5</title>
<polygon fill="none" stroke="#bfbfbf" points="189.0503,-112.5 189.0503,-131.5 236.0503,-131.5 236.0503,-112.5 189.0503,-112.5"/>
<text text-anchor="middle" x="212.5503" y="-119.5" font-family="Helvetica,sans-Serif" font-size="10.00" fill="#000000">math.h</text>
</g>
<!-- Node0&#45;&gt;Node5 -->
<g id="edge8" class="edge">
<title>Node0&#45;&gt;Node5</title>
<path fill="none" stroke="#191970" d="M107.3823,-168.3733C127.8606,-159.3435 158.6901,-145.7494 181.6822,-135.6111"/>
<polygon fill="#191970" stroke="#191970" points="183.2652,-138.7383 191.0031,-131.5011 180.441,-132.3333 183.2652,-138.7383"/>
</g>
<!-- Node2&#45;&gt;Node1 -->
<g id="edge3" class="edge">
<title>Node2&#45;&gt;Node1</title>
<path fill="none" stroke="#191970" d="M53.5503,-56.2455C53.5503,-48.9382 53.5503,-38.6944 53.5503,-29.7046"/>
<polygon fill="#191970" stroke="#191970" points="57.0504,-29.6426 53.5503,-19.6427 50.0504,-29.6427 57.0504,-29.6426"/>
</g>
<!-- Node3&#45;&gt;Node1 -->
<g id="edge6" class="edge">
<title>Node3&#45;&gt;Node1</title>
<path fill="none" stroke="#191970" d="M122.4664,-112.365C120.5907,-98.8759 115.799,-73.998 104.5503,-56 97.2433,-44.3089 86.133,-33.7947 76.1456,-25.7793"/>
<polygon fill="#191970" stroke="#191970" points="78.2019,-22.9458 68.1285,-19.6631 73.9561,-28.5112 78.2019,-22.9458"/>
</g>
<!-- Node3&#45;&gt;Node2 -->
<g id="edge7" class="edge">
<title>Node3&#45;&gt;Node2</title>
<path fill="none" stroke="#191970" d="M111.3572,-112.2455C100.9182,-103.8943 85.6848,-91.7076 73.4763,-81.9408"/>
<polygon fill="#191970" stroke="#191970" points="75.5988,-79.1566 65.6036,-75.6427 71.2259,-84.6227 75.5988,-79.1566"/>
</g>
<!-- Node4 -->
<g id="node5" class="node">
<title>Node4</title>
<polygon fill="none" stroke="#bfbfbf" points="152.0503,-56.5 152.0503,-75.5 193.0503,-75.5 193.0503,-56.5 152.0503,-56.5"/>
<text text-anchor="middle" x="172.5503" y="-63.5" font-family="Helvetica,sans-Serif" font-size="10.00" fill="#000000">mpi.h</text>
</g>
<!-- Node3&#45;&gt;Node4 -->
<g id="edge5" class="edge">
<title>Node3&#45;&gt;Node4</title>
<path fill="none" stroke="#191970" d="M132.0854,-112.2455C139.0414,-104.2958 149.0385,-92.8706 157.3554,-83.3656"/>
<polygon fill="#191970" stroke="#191970" points="160.1619,-85.4732 164.1129,-75.6427 154.8938,-80.8637 160.1619,-85.4732"/>
</g>
</g>
</svg>
