<?xml version="1.0" encoding="UTF-8" standalone="no"?>
<!DOCTYPE svg PUBLIC "-//W3C//DTD SVG 1.1//EN"
 "http://www.w3.org/Graphics/SVG/1.1/DTD/svg11.dtd">
<!-- Generated by graphviz version 2.40.1 (20161225.0304)
 -->
<!-- Title: fcs_p2nfft_p.h Pages: 1 -->
<svg width="479pt" height="218pt"
 viewBox="0.00 0.00 479.32 218.00" xmlns="http://www.w3.org/2000/svg" xmlns:xlink="http://www.w3.org/1999/xlink">
<g id="graph0" class="graph" transform="scale(1 1) rotate(0) translate(4 214)">
<title>fcs_p2nfft_p.h</title>
<!-- Node0 -->
<g id="node1" class="node">
<title>Node0</title>
<polygon fill="#bfbfbf" stroke="#000000" points="77.8192,-190.5 77.8192,-209.5 156.8192,-209.5 156.8192,-190.5 77.8192,-190.5"/>
<text text-anchor="middle" x="117.3192" y="-197.5" font-family="Helvetica,sans-Serif" font-size="10.00" fill="#000000">fcs_p2nfft_p.h</text>
</g>
<!-- Node1 -->
<g id="node2" class="node">
<title>Node1</title>
<polygon fill="none" stroke="#bfbfbf" points="6.3192,-.5 6.3192,-19.5 94.3192,-19.5 94.3192,-.5 6.3192,-.5"/>
<text text-anchor="middle" x="50.3192" y="-7.5" font-family="Helvetica,sans-Serif" font-size="10.00" fill="#000000">fcs_definitions.h</text>
</g>
<!-- Node0&#45;&gt;Node1 -->
<g id="edge1" class="edge">
<title>Node0&#45;&gt;Node1</title>
<path fill="none" stroke="#191970" d="M97.7238,-190.3731C82.6085,-182.2327 61.8895,-169.4425 47.3192,-154 19.8532,-124.8899 12.6715,-114.6602 2.3192,-76 .02,-67.4136 -1.1696,-64.1756 2.3192,-56 7.4348,-44.0122 17.3767,-33.6498 26.8919,-25.8114"/>
<polygon fill="#191970" stroke="#191970" points="29.1989,-28.4532 35.0118,-19.5954 24.9438,-22.8949 29.1989,-28.4532"/>
</g>
<!-- Node2 -->
<g id="node3" class="node">
<title>Node2</title>
<g id="a_node3"><a xlink:href="fcs__result__p_8h.html" target="_top" xlink:title="public interface definitions for the FCSResult&#45;object that is used for handling the return state of t...">
<polygon fill="none" stroke="#000000" points="11.3192,-56.5 11.3192,-75.5 89.3192,-75.5 89.3192,-56.5 11.3192,-56.5"/>
<text text-anchor="middle" x="50.3192" y="-63.5" font-family="Helvetica,sans-Serif" font-size="10.00" fill="#000000">fcs_result_p.h</text>
</a>
</g>
</g>
<!-- Node0&#45;&gt;Node2 -->
<g id="edge2" class="edge">
<title>Node0&#45;&gt;Node2</title>
<path fill="none" stroke="#191970" d="M100.1899,-190.465C87.5355,-182.4569 71.0502,-169.7975 62.3192,-154 50.5903,-132.7783 48.7429,-104.4232 49.0628,-85.7061"/>
<polygon fill="#191970" stroke="#191970" points="52.5611,-85.817 49.4581,-75.6868 45.5665,-85.541 52.5611,-85.817"/>
</g>
<!-- Node3 -->
<g id="node4" class="node">
<title>Node3</title>
<g id="a_node4"><a xlink:href="fcs__interface__p_8h.html" target="_top" xlink:title="public interface definitions for the main solver&#45;independent functionality of the ScaFaCoS library ...">
<polygon fill="none" stroke="#000000" points="71.3192,-123.5 71.3192,-142.5 163.3192,-142.5 163.3192,-123.5 71.3192,-123.5"/>
<text text-anchor="middle" x="117.3192" y="-130.5" font-family="Helvetica,sans-Serif" font-size="10.00" fill="#000000">fcs_interface_p.h</text>
</a>
</g>
</g>
<!-- Node0&#45;&gt;Node3 -->
<g id="edge4" class="edge">
<title>Node0&#45;&gt;Node3</title>
<path fill="none" stroke="#191970" d="M117.3192,-190.4005C117.3192,-180.649 117.3192,-165.2597 117.3192,-152.8695"/>
<polygon fill="#191970" stroke="#191970" points="120.8193,-152.5816 117.3192,-142.5817 113.8193,-152.5817 120.8193,-152.5816"/>
</g>
<!-- Node5 -->
<g id="node6" class="node">
<title>Node5</title>
<polygon fill="none" stroke="#bfbfbf" points="181.8192,-123.5 181.8192,-142.5 294.8192,-142.5 294.8192,-123.5 181.8192,-123.5"/>
<text text-anchor="middle" x="238.3192" y="-130.5" font-family="Helvetica,sans-Serif" font-size="10.00" fill="#000000">fcs_p2nfft_wrappers.h</text>
</g>
<!-- Node0&#45;&gt;Node5 -->
<g id="edge8" class="edge">
<title>Node0&#45;&gt;Node5</title>
<path fill="none" stroke="#191970" d="M134.6556,-190.4005C154.8722,-179.2062 188.5064,-160.5823 211.9616,-147.5947"/>
<polygon fill="#191970" stroke="#191970" points="213.9621,-150.4878 221.015,-142.5817 210.5711,-144.3639 213.9621,-150.4878"/>
</g>
<!-- Node6 -->
<g id="node7" class="node">
<title>Node6</title>
<polygon fill="none" stroke="#bfbfbf" points="313.3192,-112.5 313.3192,-153.5 471.3192,-153.5 471.3192,-112.5 313.3192,-112.5"/>
<text text-anchor="start" x="321.3192" y="-141.5" font-family="Helvetica,sans-Serif" font-size="10.00" fill="#000000">/home/mhofma/work_in</text>
<text text-anchor="start" x="321.3192" y="-130.5" font-family="Helvetica,sans-Serif" font-size="10.00" fill="#000000">_progress/scafacos/scafacos.git</text>
<text text-anchor="middle" x="392.3192" y="-119.5" font-family="Helvetica,sans-Serif" font-size="10.00" fill="#000000">/src/fcs_p2nfft_shortcuts.h</text>
</g>
<!-- Node0&#45;&gt;Node6 -->
<g id="edge9" class="edge">
<title>Node0&#45;&gt;Node6</title>
<path fill="none" stroke="#191970" d="M156.4279,-190.4717C194.519,-181.1913 253.7655,-166.7567 303.3516,-154.6757"/>
<polygon fill="#191970" stroke="#191970" points="304.2436,-158.0609 313.1309,-152.2931 302.5866,-151.2598 304.2436,-158.0609"/>
</g>
<!-- Node2&#45;&gt;Node1 -->
<g id="edge3" class="edge">
<title>Node2&#45;&gt;Node1</title>
<path fill="none" stroke="#191970" d="M50.3192,-56.2455C50.3192,-48.9382 50.3192,-38.6944 50.3192,-29.7046"/>
<polygon fill="#191970" stroke="#191970" points="53.8193,-29.6426 50.3192,-19.6427 46.8193,-29.6427 53.8193,-29.6426"/>
</g>
<!-- Node3&#45;&gt;Node1 -->
<g id="edge6" class="edge">
<title>Node3&#45;&gt;Node1</title>
<path fill="none" stroke="#191970" d="M116.6655,-123.3582C115.2687,-108.115 111.002,-77.9319 98.3192,-56 91.7051,-44.5625 81.4089,-34.1563 72.0459,-26.1459"/>
<polygon fill="#191970" stroke="#191970" points="74.1443,-23.3413 64.174,-19.7575 69.7333,-28.7766 74.1443,-23.3413"/>
</g>
<!-- Node3&#45;&gt;Node2 -->
<g id="edge7" class="edge">
<title>Node3&#45;&gt;Node2</title>
<path fill="none" stroke="#191970" d="M107.7197,-123.4005C97.1722,-112.853 80.0288,-95.7096 67.219,-82.8998"/>
<polygon fill="#191970" stroke="#191970" points="69.4468,-80.1779 59.9009,-75.5817 64.4971,-85.1276 69.4468,-80.1779"/>
</g>
<!-- Node4 -->
<g id="node5" class="node">
<title>Node4</title>
<polygon fill="none" stroke="#bfbfbf" points="145.8192,-56.5 145.8192,-75.5 186.8192,-75.5 186.8192,-56.5 145.8192,-56.5"/>
<text text-anchor="middle" x="166.3192" y="-63.5" font-family="Helvetica,sans-Serif" font-size="10.00" fill="#000000">mpi.h</text>
</g>
<!-- Node3&#45;&gt;Node4 -->
<g id="edge5" class="edge">
<title>Node3&#45;&gt;Node4</title>
<path fill="none" stroke="#191970" d="M124.3397,-123.4005C131.8353,-113.1515 143.8855,-96.6747 153.1568,-83.9976"/>
<polygon fill="#191970" stroke="#191970" points="156.2336,-85.7195 159.3117,-75.5817 150.5834,-81.5873 156.2336,-85.7195"/>
</g>
</g>
</svg>
