<?xml version="1.0" encoding="UTF-8" standalone="no"?>
<!DOCTYPE svg PUBLIC "-//W3C//DTD SVG 1.1//EN"
 "http://www.w3.org/Graphics/SVG/1.1/DTD/svg11.dtd">
<!-- Generated by graphviz version 2.40.1 (20161225.0304)
 -->
<!-- Title: fcs_p2nfft_p.h Pages: 1 -->
<svg width="486pt" height="218pt"
 viewBox="0.00 0.00 486.42 218.00" xmlns="http://www.w3.org/2000/svg" xmlns:xlink="http://www.w3.org/1999/xlink">
<g id="graph0" class="graph" transform="scale(1 1) rotate(0) translate(4 214)">
<title>fcs_p2nfft_p.h</title>
<!-- Node0 -->
<g id="node1" class="node">
<title>Node0</title>
<polygon fill="#bfbfbf" stroke="#000000" points="83.9211,-190.5 83.9211,-209.5 162.9211,-209.5 162.9211,-190.5 83.9211,-190.5"/>
<text text-anchor="middle" x="123.4211" y="-197.5" font-family="Helvetica,sans-Serif" font-size="10.00" fill="#000000">fcs_p2nfft_p.h</text>
</g>
<!-- Node1 -->
<g id="node2" class="node">
<title>Node1</title>
<polygon fill="none" stroke="#bfbfbf" points="7.4211,-.5 7.4211,-19.5 99.4211,-19.5 99.4211,-.5 7.4211,-.5"/>
<text text-anchor="middle" x="53.4211" y="-7.5" font-family="Helvetica,sans-Serif" font-size="10.00" fill="#000000">FCSDefinitions.h</text>
</g>
<!-- Node0&#45;&gt;Node1 -->
<g id="edge1" class="edge">
<title>Node0&#45;&gt;Node1</title>
<path fill="none" stroke="#191970" d="M103.4145,-190.334C87.9494,-182.172 66.6762,-169.3718 51.4211,-154 22.583,-124.9412 13.7527,-115.3401 2.4211,-76 -.0393,-67.4584 -1.1909,-64.122 2.4211,-56 7.8718,-43.7432 18.3809,-33.3755 28.45,-25.6036"/>
<polygon fill="#191970" stroke="#191970" points="30.5954,-28.3721 36.6837,-19.7012 26.5171,-22.6828 30.5954,-28.3721"/>
</g>
<!-- Node2 -->
<g id="node3" class="node">
<title>Node2</title>
<g id="a_node3"><a xlink:href="_f_c_s_result__p_8h.html" target="_top" xlink:title="public interface definitions for the FCSResult&#45;object that is used for handling the return state of t...">
<polygon fill="none" stroke="#000000" points="11.4211,-56.5 11.4211,-75.5 95.4211,-75.5 95.4211,-56.5 11.4211,-56.5"/>
<text text-anchor="middle" x="53.4211" y="-63.5" font-family="Helvetica,sans-Serif" font-size="10.00" fill="#000000">FCSResult_p.h</text>
</a>
</g>
</g>
<!-- Node0&#45;&gt;Node2 -->
<g id="edge2" class="edge">
<title>Node0&#45;&gt;Node2</title>
<path fill="none" stroke="#191970" d="M106.083,-190.4822C93.2538,-182.4834 76.493,-169.828 67.4211,-154 55.324,-132.8939 52.8061,-104.5125 52.6635,-85.7578"/>
<polygon fill="#191970" stroke="#191970" points="56.1637,-85.7648 52.8083,-75.7154 49.1644,-85.6638 56.1637,-85.7648"/>
</g>
<!-- Node3 -->
<g id="node4" class="node">
<title>Node3</title>
<g id="a_node4"><a xlink:href="_f_c_s_interface__p_8h.html" target="_top" xlink:title="public interface definitions for the main solver&#45;independent functionality of the ScaFaCoS library ...">
<polygon fill="none" stroke="#000000" points="76.4211,-123.5 76.4211,-142.5 170.4211,-142.5 170.4211,-123.5 76.4211,-123.5"/>
<text text-anchor="middle" x="123.4211" y="-130.5" font-family="Helvetica,sans-Serif" font-size="10.00" fill="#000000">FCSInterface_p.h</text>
</a>
</g>
</g>
<!-- Node0&#45;&gt;Node3 -->
<g id="edge4" class="edge">
<title>Node0&#45;&gt;Node3</title>
<path fill="none" stroke="#191970" d="M123.4211,-190.4005C123.4211,-180.649 123.4211,-165.2597 123.4211,-152.8695"/>
<polygon fill="#191970" stroke="#191970" points="126.9212,-152.5816 123.4211,-142.5817 119.9212,-152.5817 126.9212,-152.5816"/>
</g>
<!-- Node5 -->
<g id="node6" class="node">
<title>Node5</title>
<polygon fill="none" stroke="#bfbfbf" points="188.9211,-123.5 188.9211,-142.5 301.9211,-142.5 301.9211,-123.5 188.9211,-123.5"/>
<text text-anchor="middle" x="245.4211" y="-130.5" font-family="Helvetica,sans-Serif" font-size="10.00" fill="#000000">fcs_p2nfft_wrappers.h</text>
</g>
<!-- Node0&#45;&gt;Node5 -->
<g id="edge8" class="edge">
<title>Node0&#45;&gt;Node5</title>
<path fill="none" stroke="#191970" d="M140.9007,-190.4005C161.375,-179.1564 195.4982,-160.4166 219.1603,-147.4219"/>
<polygon fill="#191970" stroke="#191970" points="220.8935,-150.4632 227.9739,-142.5817 217.5239,-144.3276 220.8935,-150.4632"/>
</g>
<!-- Node6 -->
<g id="node7" class="node">
<title>Node6</title>
<polygon fill="none" stroke="#bfbfbf" points="320.4211,-112.5 320.4211,-153.5 478.4211,-153.5 478.4211,-112.5 320.4211,-112.5"/>
<text text-anchor="start" x="328.4211" y="-141.5" font-family="Helvetica,sans-Serif" font-size="10.00" fill="#000000">/home/mhofma/work_in</text>
<text text-anchor="start" x="328.4211" y="-130.5" font-family="Helvetica,sans-Serif" font-size="10.00" fill="#000000">_progress/scafacos/scafacos.git</text>
<text text-anchor="middle" x="399.4211" y="-119.5" font-family="Helvetica,sans-Serif" font-size="10.00" fill="#000000">/src/fcs_p2nfft_shortcuts.h</text>
</g>
<!-- Node0&#45;&gt;Node6 -->
<g id="edge9" class="edge">
<title>Node0&#45;&gt;Node6</title>
<path fill="none" stroke="#191970" d="M162.672,-190.4717C200.9714,-181.1744 260.5806,-166.704 310.4023,-154.6096"/>
<polygon fill="#191970" stroke="#191970" points="311.3348,-157.985 320.2269,-152.2247 309.6835,-151.1825 311.3348,-157.985"/>
</g>
<!-- Node2&#45;&gt;Node1 -->
<g id="edge3" class="edge">
<title>Node2&#45;&gt;Node1</title>
<path fill="none" stroke="#191970" d="M53.4211,-56.2455C53.4211,-48.9382 53.4211,-38.6944 53.4211,-29.7046"/>
<polygon fill="#191970" stroke="#191970" points="56.9212,-29.6426 53.4211,-19.6427 49.9212,-29.6427 56.9212,-29.6426"/>
</g>
<!-- Node3&#45;&gt;Node1 -->
<g id="edge6" class="edge">
<title>Node3&#45;&gt;Node1</title>
<path fill="none" stroke="#191970" d="M122.8457,-123.3121C121.5562,-108.0058 117.4339,-77.7377 104.4211,-56 97.3398,-44.1708 86.2513,-33.6433 76.22,-25.6548"/>
<polygon fill="#191970" stroke="#191970" points="78.2443,-22.7977 68.1535,-19.5687 74.0283,-28.3856 78.2443,-22.7977"/>
</g>
<!-- Node3&#45;&gt;Node2 -->
<g id="edge7" class="edge">
<title>Node3&#45;&gt;Node2</title>
<path fill="none" stroke="#191970" d="M113.3918,-123.4005C102.268,-112.7535 84.1224,-95.3856 70.7,-82.5385"/>
<polygon fill="#191970" stroke="#191970" points="73.0761,-79.9678 63.4317,-75.5817 68.2358,-85.0247 73.0761,-79.9678"/>
</g>
<!-- Node4 -->
<g id="node5" class="node">
<title>Node4</title>
<polygon fill="none" stroke="#bfbfbf" points="151.9211,-56.5 151.9211,-75.5 192.9211,-75.5 192.9211,-56.5 151.9211,-56.5"/>
<text text-anchor="middle" x="172.4211" y="-63.5" font-family="Helvetica,sans-Serif" font-size="10.00" fill="#000000">mpi.h</text>
</g>
<!-- Node3&#45;&gt;Node4 -->
<g id="edge5" class="edge">
<title>Node3&#45;&gt;Node4</title>
<path fill="none" stroke="#191970" d="M130.4416,-123.4005C137.9371,-113.1515 149.9873,-96.6747 159.2586,-83.9976"/>
<polygon fill="#191970" stroke="#191970" points="162.3355,-85.7195 165.4136,-75.5817 156.6852,-81.5873 162.3355,-85.7195"/>
</g>
</g>
</svg>
