<?xml version="1.0" encoding="UTF-8" standalone="no"?>
<!DOCTYPE svg PUBLIC "-//W3C//DTD SVG 1.1//EN"
 "http://www.w3.org/Graphics/SVG/1.1/DTD/svg11.dtd">
<!-- Generated by graphviz version 2.40.1 (20161225.0304)
 -->
<!-- Title: fcs.h Pages: 1 -->
<svg width="310pt" height="196pt"
 viewBox="0.00 0.00 309.50 196.00" xmlns="http://www.w3.org/2000/svg" xmlns:xlink="http://www.w3.org/1999/xlink">
<g id="graph0" class="graph" transform="scale(1 1) rotate(0) translate(4 192)">
<title>fcs.h</title>
<!-- Node0 -->
<g id="node1" class="node">
<title>Node0</title>
<polygon fill="#bfbfbf" stroke="#000000" points="103,-168.5 103,-187.5 141,-187.5 141,-168.5 103,-168.5"/>
<text text-anchor="middle" x="122" y="-175.5" font-family="Helvetica,sans-Serif" font-size="10.00" fill="#000000">fcs.h</text>
</g>
<!-- Node1 -->
<g id="node2" class="node">
<title>Node1</title>
<polygon fill="none" stroke="#bfbfbf" points="0,-112.5 0,-131.5 70,-131.5 70,-112.5 0,-112.5"/>
<text text-anchor="middle" x="35" y="-119.5" font-family="Helvetica,sans-Serif" font-size="10.00" fill="#000000">fcs_config.h</text>
</g>
<!-- Node0&#45;&gt;Node1 -->
<g id="edge1" class="edge">
<title>Node0&#45;&gt;Node1</title>
<path fill="none" stroke="#191970" d="M106.8458,-168.2455C93.4973,-159.6534 73.8414,-147.0014 58.4617,-137.1018"/>
<polygon fill="#191970" stroke="#191970" points="60.2836,-134.1121 49.9806,-131.6427 56.4949,-139.9982 60.2836,-134.1121"/>
</g>
<!-- Node2 -->
<g id="node3" class="node">
<title>Node2</title>
<polygon fill="none" stroke="#bfbfbf" points="121,-.5 121,-19.5 209,-19.5 209,-.5 121,-.5"/>
<text text-anchor="middle" x="165" y="-7.5" font-family="Helvetica,sans-Serif" font-size="10.00" fill="#000000">fcs_definitions.h</text>
</g>
<!-- Node0&#45;&gt;Node2 -->
<g id="edge2" class="edge">
<title>Node0&#45;&gt;Node2</title>
<path fill="none" stroke="#191970" d="M118.9043,-168.3192C112.6483,-146.9981 100.443,-94.7997 117,-56 122.1156,-44.0122 132.0575,-33.6498 141.5727,-25.8114"/>
<polygon fill="#191970" stroke="#191970" points="143.8797,-28.4532 149.6926,-19.5954 139.6246,-22.8949 143.8797,-28.4532"/>
</g>
<!-- Node3 -->
<g id="node4" class="node">
<title>Node3</title>
<g id="a_node4"><a xlink:href="fcs__result__p_8h.html" target="_top" xlink:title="public interface definitions for the FCSResult&#45;object that is used for handling the return state of t...">
<polygon fill="none" stroke="#000000" points="126,-56.5 126,-75.5 204,-75.5 204,-56.5 126,-56.5"/>
<text text-anchor="middle" x="165" y="-63.5" font-family="Helvetica,sans-Serif" font-size="10.00" fill="#000000">fcs_result_p.h</text>
</a>
</g>
</g>
<!-- Node0&#45;&gt;Node3 -->
<g id="edge3" class="edge">
<title>Node0&#45;&gt;Node3</title>
<path fill="none" stroke="#191970" d="M125.6662,-168.4509C132.7428,-150.0186 148.4045,-109.2254 157.6888,-85.043"/>
<polygon fill="#191970" stroke="#191970" points="161.0263,-86.115 161.3431,-75.5249 154.4914,-83.606 161.0263,-86.115"/>
</g>
<!-- Node4 -->
<g id="node5" class="node">
<title>Node4</title>
<g id="a_node5"><a xlink:href="fcs__interface__p_8h.html" target="_top" xlink:title="public interface definitions for the main solver&#45;independent functionality of the ScaFaCoS library ...">
<polygon fill="none" stroke="#000000" points="180,-112.5 180,-131.5 272,-131.5 272,-112.5 180,-112.5"/>
<text text-anchor="middle" x="226" y="-119.5" font-family="Helvetica,sans-Serif" font-size="10.00" fill="#000000">fcs_interface_p.h</text>
</a>
</g>
</g>
<!-- Node0&#45;&gt;Node4 -->
<g id="edge5" class="edge">
<title>Node0&#45;&gt;Node4</title>
<path fill="none" stroke="#191970" d="M140.1154,-168.2455C156.445,-159.4527 180.671,-146.4079 199.2339,-136.4125"/>
<polygon fill="#191970" stroke="#191970" points="200.9468,-139.4654 208.0922,-131.6427 197.6281,-133.3021 200.9468,-139.4654"/>
</g>
<!-- Node3&#45;&gt;Node2 -->
<g id="edge4" class="edge">
<title>Node3&#45;&gt;Node2</title>
<path fill="none" stroke="#191970" d="M165,-56.2455C165,-48.9382 165,-38.6944 165,-29.7046"/>
<polygon fill="#191970" stroke="#191970" points="168.5001,-29.6426 165,-19.6427 161.5001,-29.6427 168.5001,-29.6426"/>
</g>
<!-- Node4&#45;&gt;Node2 -->
<g id="edge7" class="edge">
<title>Node4&#45;&gt;Node2</title>
<path fill="none" stroke="#191970" d="M225.8934,-112.4316C225.3645,-99.0216 222.9767,-74.2372 213,-56 206.6591,-44.4088 196.3917,-33.9864 186.9772,-26.005"/>
<polygon fill="#191970" stroke="#191970" points="189.0367,-23.1704 179.0434,-19.6514 184.6611,-28.6343 189.0367,-23.1704"/>
</g>
<!-- Node4&#45;&gt;Node3 -->
<g id="edge8" class="edge">
<title>Node4&#45;&gt;Node3</title>
<path fill="none" stroke="#191970" d="M215.3746,-112.2455C206.4527,-104.0549 193.512,-92.1749 182.9808,-82.5069"/>
<polygon fill="#191970" stroke="#191970" points="185.2371,-79.8271 175.5036,-75.6427 180.5032,-84.9837 185.2371,-79.8271"/>
</g>
<!-- Node5 -->
<g id="node6" class="node">
<title>Node5</title>
<polygon fill="none" stroke="#bfbfbf" points="260.5,-56.5 260.5,-75.5 301.5,-75.5 301.5,-56.5 260.5,-56.5"/>
<text text-anchor="middle" x="281" y="-63.5" font-family="Helvetica,sans-Serif" font-size="10.00" fill="#000000">mpi.h</text>
</g>
<!-- Node4&#45;&gt;Node5 -->
<g id="edge6" class="edge">
<title>Node4&#45;&gt;Node5</title>
<path fill="none" stroke="#191970" d="M235.5803,-112.2455C243.5458,-104.1352 255.0641,-92.4075 264.5079,-82.7919"/>
<polygon fill="#191970" stroke="#191970" points="267.0195,-85.2297 271.5295,-75.6427 262.0253,-80.3247 267.0195,-85.2297"/>
</g>
</g>
</svg>
