<?xml version="1.0" encoding="UTF-8" standalone="no"?>
<!DOCTYPE svg PUBLIC "-//W3C//DTD SVG 1.1//EN"
 "http://www.w3.org/Graphics/SVG/1.1/DTD/svg11.dtd">
<!-- Generated by graphviz version 2.40.1 (20161225.0304)
 -->
<!-- Title: fcs_p3m_p.h Pages: 1 -->
<svg width="237pt" height="196pt"
 viewBox="0.00 0.00 236.96 196.00" xmlns="http://www.w3.org/2000/svg" xmlns:xlink="http://www.w3.org/1999/xlink">
<g id="graph0" class="graph" transform="scale(1 1) rotate(0) translate(4 192)">
<title>fcs_p3m_p.h</title>
<!-- Node0 -->
<g id="node1" class="node">
<title>Node0</title>
<polygon fill="#bfbfbf" stroke="#000000" points="43.957,-168.5 43.957,-187.5 116.957,-187.5 116.957,-168.5 43.957,-168.5"/>
<text text-anchor="middle" x="80.457" y="-175.5" font-family="Helvetica,sans-Serif" font-size="10.00" fill="#000000">fcs_p3m_p.h</text>
</g>
<!-- Node1 -->
<g id="node2" class="node">
<title>Node1</title>
<polygon fill="none" stroke="#bfbfbf" points="6.457,-.5 6.457,-19.5 94.457,-19.5 94.457,-.5 6.457,-.5"/>
<text text-anchor="middle" x="50.457" y="-7.5" font-family="Helvetica,sans-Serif" font-size="10.00" fill="#000000">fcs_definitions.h</text>
</g>
<!-- Node0&#45;&gt;Node1 -->
<g id="edge1" class="edge">
<title>Node0&#45;&gt;Node1</title>
<path fill="none" stroke="#191970" d="M69.4254,-168.3701C51.2824,-151.711 15.8243,-115.486 2.457,-76 -.3933,-67.5805 -1.0318,-64.1756 2.457,-56 7.5725,-44.0122 17.5145,-33.6498 27.0297,-25.8114"/>
<polygon fill="#191970" stroke="#191970" points="29.3367,-28.4532 35.1496,-19.5954 25.0816,-22.8949 29.3367,-28.4532"/>
</g>
<!-- Node2 -->
<g id="node3" class="node">
<title>Node2</title>
<g id="a_node3"><a xlink:href="fcs__result__p_8h.html" target="_top" xlink:title="public interface definitions for the FCSResult&#45;object that is used for handling the return state of t...">
<polygon fill="none" stroke="#000000" points="11.457,-56.5 11.457,-75.5 89.457,-75.5 89.457,-56.5 11.457,-56.5"/>
<text text-anchor="middle" x="50.457" y="-63.5" font-family="Helvetica,sans-Serif" font-size="10.00" fill="#000000">fcs_result_p.h</text>
</a>
</g>
</g>
<!-- Node0&#45;&gt;Node2 -->
<g id="edge2" class="edge">
<title>Node0&#45;&gt;Node2</title>
<path fill="none" stroke="#191970" d="M76.0343,-168.3181C71.9935,-159.1365 66.1081,-144.8703 62.457,-132 58.1304,-116.7484 55.0121,-99.0554 53.0404,-85.8295"/>
<polygon fill="#191970" stroke="#191970" points="56.4516,-84.9499 51.6013,-75.5305 49.5189,-85.9187 56.4516,-84.9499"/>
</g>
<!-- Node3 -->
<g id="node4" class="node">
<title>Node3</title>
<g id="a_node4"><a xlink:href="fcs__interface__p_8h.html" target="_top" xlink:title="public interface definitions for the main solver&#45;independent functionality of the ScaFaCoS library ...">
<polygon fill="none" stroke="#000000" points="71.457,-112.5 71.457,-131.5 163.457,-131.5 163.457,-112.5 71.457,-112.5"/>
<text text-anchor="middle" x="117.457" y="-119.5" font-family="Helvetica,sans-Serif" font-size="10.00" fill="#000000">fcs_interface_p.h</text>
</a>
</g>
</g>
<!-- Node0&#45;&gt;Node3 -->
<g id="edge4" class="edge">
<title>Node0&#45;&gt;Node3</title>
<path fill="none" stroke="#191970" d="M86.9019,-168.2455C91.9952,-160.5367 99.2478,-149.5598 105.409,-140.2348"/>
<polygon fill="#191970" stroke="#191970" points="108.4935,-141.9155 111.0859,-131.6427 102.6531,-138.0566 108.4935,-141.9155"/>
</g>
<!-- Node5 -->
<g id="node6" class="node">
<title>Node5</title>
<polygon fill="none" stroke="#bfbfbf" points="181.957,-112.5 181.957,-131.5 228.957,-131.5 228.957,-112.5 181.957,-112.5"/>
<text text-anchor="middle" x="205.457" y="-119.5" font-family="Helvetica,sans-Serif" font-size="10.00" fill="#000000">math.h</text>
</g>
<!-- Node0&#45;&gt;Node5 -->
<g id="edge8" class="edge">
<title>Node0&#45;&gt;Node5</title>
<path fill="none" stroke="#191970" d="M101.9452,-168.3733C122.101,-159.3435 152.445,-145.7494 175.075,-135.6111"/>
<polygon fill="#191970" stroke="#191970" points="176.554,-138.7838 184.2491,-131.5011 173.6921,-132.3955 176.554,-138.7838"/>
</g>
<!-- Node2&#45;&gt;Node1 -->
<g id="edge3" class="edge">
<title>Node2&#45;&gt;Node1</title>
<path fill="none" stroke="#191970" d="M50.457,-56.2455C50.457,-48.9382 50.457,-38.6944 50.457,-29.7046"/>
<polygon fill="#191970" stroke="#191970" points="53.9571,-29.6426 50.457,-19.6427 46.9571,-29.6427 53.9571,-29.6426"/>
</g>
<!-- Node3&#45;&gt;Node1 -->
<g id="edge6" class="edge">
<title>Node3&#45;&gt;Node1</title>
<path fill="none" stroke="#191970" d="M116.297,-112.4118C114.3309,-98.9782 109.4325,-74.166 98.457,-56 91.5323,-44.5387 81.0258,-34.0182 71.6062,-25.9397"/>
<polygon fill="#191970" stroke="#191970" points="73.6855,-23.119 63.7254,-19.5068 69.259,-28.5418 73.6855,-23.119"/>
</g>
<!-- Node3&#45;&gt;Node2 -->
<g id="edge7" class="edge">
<title>Node3&#45;&gt;Node2</title>
<path fill="none" stroke="#191970" d="M105.7865,-112.2455C95.8909,-103.9746 81.4943,-91.9416 69.8669,-82.2232"/>
<polygon fill="#191970" stroke="#191970" points="71.9112,-79.3703 61.9937,-75.6427 67.422,-84.7413 71.9112,-79.3703"/>
</g>
<!-- Node4 -->
<g id="node5" class="node">
<title>Node4</title>
<polygon fill="none" stroke="#bfbfbf" points="145.957,-56.5 145.957,-75.5 186.957,-75.5 186.957,-56.5 145.957,-56.5"/>
<text text-anchor="middle" x="166.457" y="-63.5" font-family="Helvetica,sans-Serif" font-size="10.00" fill="#000000">mpi.h</text>
</g>
<!-- Node3&#45;&gt;Node4 -->
<g id="edge5" class="edge">
<title>Node3&#45;&gt;Node4</title>
<path fill="none" stroke="#191970" d="M125.9921,-112.2455C132.9481,-104.2958 142.9452,-92.8706 151.2621,-83.3656"/>
<polygon fill="#191970" stroke="#191970" points="154.0686,-85.4732 158.0196,-75.6427 148.8005,-80.8637 154.0686,-85.4732"/>
</g>
</g>
</svg>
