<?xml version="1.0" encoding="UTF-8" standalone="no"?>
<!DOCTYPE svg PUBLIC "-//W3C//DTD SVG 1.1//EN"
 "http://www.w3.org/Graphics/SVG/1.1/DTD/svg11.dtd">
<!-- Generated by graphviz version 2.40.1 (20161225.0304)
 -->
<!-- Title: fcs.h Pages: 1 -->
<svg width="316pt" height="196pt"
 viewBox="0.00 0.00 315.50 196.00" xmlns="http://www.w3.org/2000/svg" xmlns:xlink="http://www.w3.org/1999/xlink">
<g id="graph0" class="graph" transform="scale(1 1) rotate(0) translate(4 192)">
<title>fcs.h</title>
<!-- Node0 -->
<g id="node1" class="node">
<title>Node0</title>
<polygon fill="#bfbfbf" stroke="#000000" points="104,-168.5 104,-187.5 142,-187.5 142,-168.5 104,-168.5"/>
<text text-anchor="middle" x="123" y="-175.5" font-family="Helvetica,sans-Serif" font-size="10.00" fill="#000000">fcs.h</text>
</g>
<!-- Node1 -->
<g id="node2" class="node">
<title>Node1</title>
<polygon fill="none" stroke="#bfbfbf" points="0,-112.5 0,-131.5 70,-131.5 70,-112.5 0,-112.5"/>
<text text-anchor="middle" x="35" y="-119.5" font-family="Helvetica,sans-Serif" font-size="10.00" fill="#000000">fcs_config.h</text>
</g>
<!-- Node0&#45;&gt;Node1 -->
<g id="edge1" class="edge">
<title>Node0&#45;&gt;Node1</title>
<path fill="none" stroke="#191970" d="M107.6716,-168.2455C94.1697,-159.6534 74.2878,-147.0014 58.7314,-137.1018"/>
<polygon fill="#191970" stroke="#191970" points="60.4685,-134.0587 50.1528,-131.6427 56.7103,-139.9643 60.4685,-134.0587"/>
</g>
<!-- Node2 -->
<g id="node3" class="node">
<title>Node2</title>
<polygon fill="none" stroke="#bfbfbf" points="122,-.5 122,-19.5 214,-19.5 214,-.5 122,-.5"/>
<text text-anchor="middle" x="168" y="-7.5" font-family="Helvetica,sans-Serif" font-size="10.00" fill="#000000">FCSDefinitions.h</text>
</g>
<!-- Node0&#45;&gt;Node2 -->
<g id="edge2" class="edge">
<title>Node0&#45;&gt;Node2</title>
<path fill="none" stroke="#191970" d="M119.6897,-168.2834C112.9894,-146.891 99.8522,-94.5592 117,-56 122.4508,-43.7432 132.9599,-33.3755 143.0289,-25.6036"/>
<polygon fill="#191970" stroke="#191970" points="145.1744,-28.3721 151.2627,-19.7012 141.096,-22.6828 145.1744,-28.3721"/>
</g>
<!-- Node3 -->
<g id="node4" class="node">
<title>Node3</title>
<g id="a_node4"><a xlink:href="_f_c_s_result__p_8h.html" target="_top" xlink:title="public interface definitions for the FCSResult&#45;object that is used for handling the return state of t...">
<polygon fill="none" stroke="#000000" points="126,-56.5 126,-75.5 210,-75.5 210,-56.5 126,-56.5"/>
<text text-anchor="middle" x="168" y="-63.5" font-family="Helvetica,sans-Serif" font-size="10.00" fill="#000000">FCSResult_p.h</text>
</a>
</g>
</g>
<!-- Node0&#45;&gt;Node3 -->
<g id="edge3" class="edge">
<title>Node0&#45;&gt;Node3</title>
<path fill="none" stroke="#191970" d="M126.8367,-168.4509C134.2425,-150.0186 150.6327,-109.2254 160.3488,-85.043"/>
<polygon fill="#191970" stroke="#191970" points="163.6925,-86.1088 164.173,-75.5249 157.1971,-83.499 163.6925,-86.1088"/>
</g>
<!-- Node4 -->
<g id="node5" class="node">
<title>Node4</title>
<g id="a_node5"><a xlink:href="_f_c_s_interface__p_8h.html" target="_top" xlink:title="public interface definitions for the main solver&#45;independent functionality of the ScaFaCoS library ...">
<polygon fill="none" stroke="#000000" points="184,-112.5 184,-131.5 278,-131.5 278,-112.5 184,-112.5"/>
<text text-anchor="middle" x="231" y="-119.5" font-family="Helvetica,sans-Serif" font-size="10.00" fill="#000000">FCSInterface_p.h</text>
</a>
</g>
</g>
<!-- Node0&#45;&gt;Node4 -->
<g id="edge5" class="edge">
<title>Node0&#45;&gt;Node4</title>
<path fill="none" stroke="#191970" d="M141.8122,-168.2455C158.8473,-159.4125 184.1575,-146.2887 203.4681,-136.2758"/>
<polygon fill="#191970" stroke="#191970" points="205.137,-139.353 212.4034,-131.6427 201.9147,-133.1388 205.137,-139.353"/>
</g>
<!-- Node3&#45;&gt;Node2 -->
<g id="edge4" class="edge">
<title>Node3&#45;&gt;Node2</title>
<path fill="none" stroke="#191970" d="M168,-56.2455C168,-48.9382 168,-38.6944 168,-29.7046"/>
<polygon fill="#191970" stroke="#191970" points="171.5001,-29.6426 168,-19.6427 164.5001,-29.6427 171.5001,-29.6426"/>
</g>
<!-- Node4&#45;&gt;Node2 -->
<g id="edge7" class="edge">
<title>Node4&#45;&gt;Node2</title>
<path fill="none" stroke="#191970" d="M231.1471,-112.3958C230.9505,-98.9432 229.0906,-74.1086 219,-56 212.3799,-44.1195 201.5344,-33.6939 191.5432,-25.7853"/>
<polygon fill="#191970" stroke="#191970" points="193.5712,-22.9315 183.463,-19.7573 189.3855,-28.5423 193.5712,-22.9315"/>
</g>
<!-- Node4&#45;&gt;Node3 -->
<g id="edge8" class="edge">
<title>Node4&#45;&gt;Node3</title>
<path fill="none" stroke="#191970" d="M220.0262,-112.2455C210.8118,-104.0549 197.4468,-92.1749 186.5703,-82.5069"/>
<polygon fill="#191970" stroke="#191970" points="188.6474,-79.6704 178.848,-75.6427 183.9968,-84.9023 188.6474,-79.6704"/>
</g>
<!-- Node5 -->
<g id="node6" class="node">
<title>Node5</title>
<polygon fill="none" stroke="#bfbfbf" points="266.5,-56.5 266.5,-75.5 307.5,-75.5 307.5,-56.5 266.5,-56.5"/>
<text text-anchor="middle" x="287" y="-63.5" font-family="Helvetica,sans-Serif" font-size="10.00" fill="#000000">mpi.h</text>
</g>
<!-- Node4&#45;&gt;Node5 -->
<g id="edge6" class="edge">
<title>Node4&#45;&gt;Node5</title>
<path fill="none" stroke="#191970" d="M240.7545,-112.2455C248.8648,-104.1352 260.5925,-92.4075 270.2081,-82.7919"/>
<polygon fill="#191970" stroke="#191970" points="272.7611,-85.1887 277.3573,-75.6427 267.8113,-80.2389 272.7611,-85.1887"/>
</g>
</g>
</svg>
