<?xml version="1.0" encoding="UTF-8" standalone="no"?>
<!DOCTYPE svg PUBLIC "-//W3C//DTD SVG 1.1//EN"
 "http://www.w3.org/Graphics/SVG/1.1/DTD/svg11.dtd">
<!-- Generated by graphviz version 2.40.1 (20161225.0304)
 -->
<!-- Title: fcs_get_position_char Pages: 1 -->
<svg width="279pt" height="66pt"
 viewBox="0.00 0.00 279.00 66.00" xmlns="http://www.w3.org/2000/svg" xmlns:xlink="http://www.w3.org/1999/xlink">
<g id="graph0" class="graph" transform="scale(1 1) rotate(0) translate(4 62)">
<title>fcs_get_position_char</title>
<!-- Node3 -->
<g id="node1" class="node">
<title>Node3</title>
<polygon fill="#bfbfbf" stroke="#000000" points="0,-19.5 0,-38.5 112,-38.5 112,-19.5 0,-19.5"/>
<text text-anchor="middle" x="56" y="-26.5" font-family="Helvetica,sans-Serif" font-size="10.00" fill="#000000">fcs_get_position_char</text>
</g>
<!-- Node4 -->
<g id="node2" class="node">
<title>Node4</title>
<g id="a_node2"><a xlink:href="namespacefcs__module.html#acd1a56674629ad249ae221073b595265" target="_top" xlink:title="fcs_result_get_message">
<polygon fill="none" stroke="#000000" points="148,-38.5 148,-57.5 271,-57.5 271,-38.5 148,-38.5"/>
<text text-anchor="middle" x="209.5" y="-45.5" font-family="Helvetica,sans-Serif" font-size="10.00" fill="#000000">fcs_result_get_message</text>
</a>
</g>
</g>
<!-- Node3&#45;&gt;Node4 -->
<g id="edge1" class="edge">
<title>Node3&#45;&gt;Node4</title>
<path fill="none" stroke="#191970" d="M122.4425,-37.2242C130.8602,-38.2661 139.4465,-39.3289 147.7862,-40.3612"/>
<polygon fill="#191970" stroke="#191970" points="122.6404,-33.722 112.2861,-35.967 121.7804,-40.669 122.6404,-33.722"/>
</g>
<!-- Node5 -->
<g id="node3" class="node">
<title>Node5</title>
<g id="a_node3"><a xlink:href="namespacefcs__module.html#aaf8eea47266d4eb5f307cd9f1d49a719" target="_top" xlink:title="fcs_result_get_function">
<polygon fill="none" stroke="#000000" points="150.5,-.5 150.5,-19.5 268.5,-19.5 268.5,-.5 150.5,-.5"/>
<text text-anchor="middle" x="209.5" y="-7.5" font-family="Helvetica,sans-Serif" font-size="10.00" fill="#000000">fcs_result_get_function</text>
</a>
</g>
</g>
<!-- Node3&#45;&gt;Node5 -->
<g id="edge2" class="edge">
<title>Node3&#45;&gt;Node5</title>
<path fill="none" stroke="#191970" d="M122.3089,-20.7924C131.6462,-19.6366 141.1937,-18.4549 150.3845,-17.3172"/>
<polygon fill="#191970" stroke="#191970" points="121.7804,-17.331 112.2861,-22.033 122.6404,-24.278 121.7804,-17.331"/>
</g>
</g>
</svg>
