<?xml version="1.0" encoding="UTF-8" standalone="no"?>
<!DOCTYPE svg PUBLIC "-//W3C//DTD SVG 1.1//EN"
 "http://www.w3.org/Graphics/SVG/1.1/DTD/svg11.dtd">
<!-- Generated by graphviz version 2.28.0 (20130622.2148)
 -->
<!-- Title: /home5/m.winkel/workspace/scafacos/scafacos.git/src/fcs_p2nfft_p.h Pages: 1 -->
<svg width="469pt" height="240pt"
 viewBox="0.00 0.00 469.44 240.00" xmlns="http://www.w3.org/2000/svg" xmlns:xlink="http://www.w3.org/1999/xlink">
<g id="graph1" class="graph" transform="scale(1 1) rotate(0) translate(4 236)">
<title>/home5/m.winkel/workspace/scafacos/scafacos.git/src/fcs_p2nfft_p.h</title>
<!-- Node1 -->
<g id="node1" class="node"><title>Node1</title>
<polygon fill="#bfbfbf" stroke="black" points="50.9432,-190.5 50.9432,-231.5 195.943,-231.5 195.943,-190.5 50.9432,-190.5"/>
<text text-anchor="start" x="58.9432" y="-219.5" font-family="Helvetica,sans-Serif" font-size="10.00">/home5/m.winkel/workspace</text>
<text text-anchor="start" x="58.9432" y="-208.5" font-family="Helvetica,sans-Serif" font-size="10.00">/scafacos/scafacos.git</text>
<text text-anchor="middle" x="123.443" y="-197.5" font-family="Helvetica,sans-Serif" font-size="10.00">/src/fcs_p2nfft_p.h</text>
</g>
<!-- Node2 -->
<g id="node3" class="node"><title>Node2</title>
<polygon fill="none" stroke="#bfbfbf" points="7.9432,-0.5 7.9432,-19.5 98.9432,-19.5 98.9432,-0.5 7.9432,-0.5"/>
<text text-anchor="middle" x="53.4432" y="-7.5" font-family="Helvetica,sans-Serif" font-size="10.00">FCSDefinitions.h</text>
</g>
<!-- Node1&#45;&gt;Node2 -->
<g id="edge2" class="edge"><title>Node1&#45;&gt;Node2</title>
<path fill="none" stroke="midnightblue" d="M93.4518,-190.297C79.7045,-180.398 63.766,-167.623 51.4432,-154 23.9797,-123.639 13.7748,-115.34 2.4432,-76 -0.0171404,-67.4584 -1.21303,-64.1021 2.4432,-56 8.05909,-43.5553 19.0059,-33.1723 29.3224,-25.5273"/>
<polygon fill="midnightblue" stroke="midnightblue" points="31.4496,-28.3123 37.7092,-19.7643 27.4853,-22.5431 31.4496,-28.3123"/>
</g>
<!-- Node3 -->
<g id="node5" class="node"><title>Node3</title>
<a xlink:href="../../d2/de7/a00014.html" target="_top" xlink:title="FCSResult_p.h">
<polygon fill="none" stroke="black" points="11.9432,-56.5 11.9432,-75.5 94.9432,-75.5 94.9432,-56.5 11.9432,-56.5"/>
<text text-anchor="middle" x="53.4432" y="-63.5" font-family="Helvetica,sans-Serif" font-size="10.00">FCSResult_p.h</text>
</a>
</g>
<!-- Node1&#45;&gt;Node3 -->
<g id="edge4" class="edge"><title>Node1&#45;&gt;Node3</title>
<path fill="none" stroke="midnightblue" d="M97.452,-190.307C86.4616,-180.589 74.5764,-167.957 67.4432,-154 56.4255,-132.442 53.6795,-104.292 53.1889,-85.9375"/>
<polygon fill="midnightblue" stroke="midnightblue" points="56.6873,-85.6674 53.1243,-75.6897 49.6875,-85.7115 56.6873,-85.6674"/>
</g>
<!-- Node4 -->
<g id="node8" class="node"><title>Node4</title>
<a xlink:href="../../d7/dd4/a00013.html" target="_top" xlink:title="supplying the C&#45;interface routine for the ScaFaCoS library ">
<polygon fill="none" stroke="black" points="76.9432,-123.5 76.9432,-142.5 169.943,-142.5 169.943,-123.5 76.9432,-123.5"/>
<text text-anchor="middle" x="123.443" y="-130.5" font-family="Helvetica,sans-Serif" font-size="10.00">FCSInterface_p.h</text>
</a>
</g>
<!-- Node1&#45;&gt;Node4 -->
<g id="edge8" class="edge"><title>Node1&#45;&gt;Node4</title>
<path fill="none" stroke="midnightblue" d="M123.443,-190.428C123.443,-178.817 123.443,-164.177 123.443,-152.719"/>
<polygon fill="midnightblue" stroke="midnightblue" points="126.943,-152.552 123.443,-142.552 119.943,-152.552 126.943,-152.552"/>
</g>
<!-- Node6 -->
<g id="node14" class="node"><title>Node6</title>
<polygon fill="none" stroke="#bfbfbf" points="187.943,-123.5 187.943,-142.5 298.943,-142.5 298.943,-123.5 187.943,-123.5"/>
<text text-anchor="middle" x="243.443" y="-130.5" font-family="Helvetica,sans-Serif" font-size="10.00">fcs_p2nfft_wrappers.h</text>
</g>
<!-- Node1&#45;&gt;Node6 -->
<g id="edge16" class="edge"><title>Node1&#45;&gt;Node6</title>
<path fill="none" stroke="midnightblue" d="M154.346,-190.428C175.353,-177.124 202.638,-159.843 221.45,-147.929"/>
<polygon fill="midnightblue" stroke="midnightblue" points="223.364,-150.859 229.94,-142.552 219.619,-144.946 223.364,-150.859"/>
</g>
<!-- Node7 -->
<g id="node16" class="node"><title>Node7</title>
<polygon fill="none" stroke="#bfbfbf" points="316.943,-112.5 316.943,-153.5 461.943,-153.5 461.943,-112.5 316.943,-112.5"/>
<text text-anchor="start" x="324.943" y="-141.5" font-family="Helvetica,sans-Serif" font-size="10.00">/home5/m.winkel/workspace</text>
<text text-anchor="start" x="324.943" y="-130.5" font-family="Helvetica,sans-Serif" font-size="10.00">/scafacos/scafacos.git</text>
<text text-anchor="middle" x="389.443" y="-119.5" font-family="Helvetica,sans-Serif" font-size="10.00">/src/fcs_p2nfft_shortcuts.h</text>
</g>
<!-- Node1&#45;&gt;Node7 -->
<g id="edge18" class="edge"><title>Node1&#45;&gt;Node7</title>
<path fill="none" stroke="midnightblue" d="M191.945,-190.428C228.402,-180.012 273.39,-167.158 311.216,-156.351"/>
<polygon fill="midnightblue" stroke="midnightblue" points="312.52,-159.618 321.174,-153.506 310.597,-152.888 312.52,-159.618"/>
</g>
<!-- Node3&#45;&gt;Node2 -->
<g id="edge6" class="edge"><title>Node3&#45;&gt;Node2</title>
<path fill="none" stroke="midnightblue" d="M53.4432,-56.083C53.4432,-49.0059 53.4432,-38.8611 53.4432,-29.9865"/>
<polygon fill="midnightblue" stroke="midnightblue" points="56.9433,-29.751 53.4432,-19.7511 49.9433,-29.7511 56.9433,-29.751"/>
</g>
<!-- Node4&#45;&gt;Node2 -->
<g id="edge12" class="edge"><title>Node4&#45;&gt;Node2</title>
<path fill="none" stroke="midnightblue" d="M122.786,-123.397C121.325,-108.621 116.799,-77.8987 103.443,-56 96.2944,-44.2784 85.167,-33.8325 75.2227,-25.9626"/>
<polygon fill="midnightblue" stroke="midnightblue" points="77.0201,-22.936 66.9181,-19.7424 72.8237,-28.5387 77.0201,-22.936"/>
</g>
<!-- Node4&#45;&gt;Node3 -->
<g id="edge14" class="edge"><title>Node4&#45;&gt;Node3</title>
<path fill="none" stroke="midnightblue" d="M114.003,-123.234C102.772,-112.805 83.822,-95.2088 70.1067,-82.4732"/>
<polygon fill="midnightblue" stroke="midnightblue" points="72.4437,-79.8671 62.7341,-75.6273 67.6805,-84.9966 72.4437,-79.8671"/>
</g>
<!-- Node5 -->
<g id="node10" class="node"><title>Node5</title>
<polygon fill="none" stroke="#bfbfbf" points="151.443,-56.5 151.443,-75.5 191.443,-75.5 191.443,-56.5 151.443,-56.5"/>
<text text-anchor="middle" x="171.443" y="-63.5" font-family="Helvetica,sans-Serif" font-size="10.00">mpi.h</text>
</g>
<!-- Node4&#45;&gt;Node5 -->
<g id="edge10" class="edge"><title>Node4&#45;&gt;Node5</title>
<path fill="none" stroke="midnightblue" d="M129.917,-123.234C137.33,-113.195 149.648,-96.5145 158.948,-83.9213"/>
<polygon fill="midnightblue" stroke="midnightblue" points="161.947,-85.7508 165.072,-75.6273 156.316,-81.5925 161.947,-85.7508"/>
</g>
</g>
</svg>
