<?xml version="1.0" encoding="UTF-8" standalone="no"?>
<!DOCTYPE svg PUBLIC "-//W3C//DTD SVG 1.1//EN"
 "http://www.w3.org/Graphics/SVG/1.1/DTD/svg11.dtd">
<!-- Generated by graphviz version 2.28.0 (20130622.2148)
 -->
<!-- Title: /home5/m.winkel/workspace/scafacos/scafacos.git/src/fcs_p3m_p.h Pages: 1 -->
<svg width="243pt" height="218pt"
 viewBox="0.00 0.00 242.52 218.00" xmlns="http://www.w3.org/2000/svg" xmlns:xlink="http://www.w3.org/1999/xlink">
<g id="graph1" class="graph" transform="scale(1 1) rotate(0) translate(4 214)">
<title>/home5/m.winkel/workspace/scafacos/scafacos.git/src/fcs_p3m_p.h</title>
<!-- Node1 -->
<g id="node1" class="node"><title>Node1</title>
<polygon fill="#bfbfbf" stroke="black" points="13.0248,-168.5 13.0248,-209.5 158.025,-209.5 158.025,-168.5 13.0248,-168.5"/>
<text text-anchor="start" x="21.0248" y="-197.5" font-family="Helvetica,sans-Serif" font-size="10.00">/home5/m.winkel/workspace</text>
<text text-anchor="start" x="21.0248" y="-186.5" font-family="Helvetica,sans-Serif" font-size="10.00">/scafacos/scafacos.git</text>
<text text-anchor="middle" x="85.5248" y="-175.5" font-family="Helvetica,sans-Serif" font-size="10.00">/src/fcs_p3m_p.h</text>
</g>
<!-- Node2 -->
<g id="node3" class="node"><title>Node2</title>
<polygon fill="none" stroke="#bfbfbf" points="8.02479,-0.5 8.02479,-19.5 99.0248,-19.5 99.0248,-0.5 8.02479,-0.5"/>
<text text-anchor="middle" x="53.5248" y="-7.5" font-family="Helvetica,sans-Serif" font-size="10.00">FCSDefinitions.h</text>
</g>
<!-- Node1&#45;&gt;Node2 -->
<g id="edge2" class="edge"><title>Node1&#45;&gt;Node2</title>
<path fill="none" stroke="midnightblue" d="M64.7647,-168.463C44.4195,-147.76 14.7404,-113.001 2.52479,-76 -0.261913,-67.5592 -1.13144,-64.1021 2.52479,-56 8.14068,-43.5553 19.0875,-33.1723 29.404,-25.5273"/>
<polygon fill="midnightblue" stroke="midnightblue" points="31.5312,-28.3123 37.7908,-19.7643 27.5669,-22.5431 31.5312,-28.3123"/>
</g>
<!-- Node3 -->
<g id="node5" class="node"><title>Node3</title>
<a xlink:href="../../d2/de7/a00014.html" target="_top" xlink:title="FCSResult_p.h">
<polygon fill="none" stroke="black" points="12.0248,-56.5 12.0248,-75.5 95.0248,-75.5 95.0248,-56.5 12.0248,-56.5"/>
<text text-anchor="middle" x="53.5248" y="-63.5" font-family="Helvetica,sans-Serif" font-size="10.00">FCSResult_p.h</text>
</a>
</g>
<!-- Node1&#45;&gt;Node3 -->
<g id="edge4" class="edge"><title>Node1&#45;&gt;Node3</title>
<path fill="none" stroke="midnightblue" d="M78.7149,-168.444C75.1249,-157.753 70.7994,-144.232 67.5248,-132 63.4151,-116.648 59.6767,-99.0099 57.0988,-85.9839"/>
<polygon fill="midnightblue" stroke="midnightblue" points="60.4839,-85.0531 55.152,-75.8977 53.6107,-86.3798 60.4839,-85.0531"/>
</g>
<!-- Node4 -->
<g id="node8" class="node"><title>Node4</title>
<a xlink:href="../../d7/dd4/a00013.html" target="_top" xlink:title="supplying the C&#45;interface routine for the ScaFaCoS library ">
<polygon fill="none" stroke="black" points="77.0248,-112.5 77.0248,-131.5 170.025,-131.5 170.025,-112.5 77.0248,-112.5"/>
<text text-anchor="middle" x="123.525" y="-119.5" font-family="Helvetica,sans-Serif" font-size="10.00">FCSInterface_p.h</text>
</a>
</g>
<!-- Node1&#45;&gt;Node4 -->
<g id="edge8" class="edge"><title>Node1&#45;&gt;Node4</title>
<path fill="none" stroke="midnightblue" d="M96.926,-168.498C102.136,-159.586 108.258,-149.113 113.315,-140.464"/>
<polygon fill="midnightblue" stroke="midnightblue" points="116.441,-142.052 118.466,-131.652 110.398,-138.519 116.441,-142.052"/>
</g>
<!-- Node6 -->
<g id="node14" class="node"><title>Node6</title>
<polygon fill="none" stroke="#bfbfbf" points="188.525,-112.5 188.525,-131.5 234.525,-131.5 234.525,-112.5 188.525,-112.5"/>
<text text-anchor="middle" x="211.525" y="-119.5" font-family="Helvetica,sans-Serif" font-size="10.00">math.h</text>
</g>
<!-- Node1&#45;&gt;Node6 -->
<g id="edge16" class="edge"><title>Node1&#45;&gt;Node6</title>
<path fill="none" stroke="midnightblue" d="M123.329,-168.498C143.39,-158.149 167.532,-145.695 185.482,-136.435"/>
<polygon fill="midnightblue" stroke="midnightblue" points="187.47,-139.348 194.752,-131.652 184.26,-133.127 187.47,-139.348"/>
</g>
<!-- Node3&#45;&gt;Node2 -->
<g id="edge6" class="edge"><title>Node3&#45;&gt;Node2</title>
<path fill="none" stroke="midnightblue" d="M53.5248,-56.083C53.5248,-49.0059 53.5248,-38.8611 53.5248,-29.9865"/>
<polygon fill="midnightblue" stroke="midnightblue" points="57.0249,-29.751 53.5248,-19.7511 50.0249,-29.7511 57.0249,-29.751"/>
</g>
<!-- Node4&#45;&gt;Node2 -->
<g id="edge12" class="edge"><title>Node4&#45;&gt;Node2</title>
<path fill="none" stroke="midnightblue" d="M122.376,-112.386C120.319,-99.3238 115.089,-74.1115 103.525,-56 95.9634,-44.1574 84.4657,-33.5069 74.4016,-25.5437"/>
<polygon fill="midnightblue" stroke="midnightblue" points="76.4965,-22.7398 66.4029,-19.5194 72.2852,-28.3313 76.4965,-22.7398"/>
</g>
<!-- Node4&#45;&gt;Node3 -->
<g id="edge14" class="edge"><title>Node4&#45;&gt;Node3</title>
<path fill="none" stroke="midnightblue" d="M112.278,-112.324C101.727,-104.185 85.7241,-91.8395 73.0826,-82.0874"/>
<polygon fill="midnightblue" stroke="midnightblue" points="75.0318,-79.1707 64.9761,-75.8339 70.7562,-84.7132 75.0318,-79.1707"/>
</g>
<!-- Node5 -->
<g id="node10" class="node"><title>Node5</title>
<polygon fill="none" stroke="#bfbfbf" points="151.525,-56.5 151.525,-75.5 191.525,-75.5 191.525,-56.5 151.525,-56.5"/>
<text text-anchor="middle" x="171.525" y="-63.5" font-family="Helvetica,sans-Serif" font-size="10.00">mpi.h</text>
</g>
<!-- Node4&#45;&gt;Node5 -->
<g id="edge10" class="edge"><title>Node4&#45;&gt;Node5</title>
<path fill="none" stroke="midnightblue" d="M131.451,-112.083C138.371,-104.298 148.59,-92.8015 156.977,-83.3665"/>
<polygon fill="midnightblue" stroke="midnightblue" points="159.718,-85.5505 163.746,-75.7511 154.486,-80.8999 159.718,-85.5505"/>
</g>
</g>
</svg>
